<svg width="70" height="70" viewBox="0 0 70 70" fill="none" xmlns="http://www.w3.org/2000/svg">
<path d="M64 0H6C2.68629 0 0 2.68629 0 6V64C0 67.3137 2.68629 70 6 70H64C67.3137 70 70 67.3137 70 64V6C70 2.68629 67.3137 0 64 0Z" fill="#FBD450"/>
<path d="M44.5501 57.6501H25.4801V56.3501H34.3701V50.0101H29.2901C26.5883 50.0127 23.9959 48.9434 22.0817 47.0367C20.1675 45.1301 19.088 42.5418 19.0801 39.8401V32.2001H20.3801V39.8401C20.3827 42.1971 21.3202 44.4567 22.9868 46.1234C24.6534 47.79 26.9131 48.7275 29.2701 48.7301H40.7301C43.088 48.7275 45.3487 47.7903 47.0169 46.124C48.6851 44.4576 49.6248 42.198 49.6301 39.8401V32.2001H50.9301V39.8401C50.9248 42.5427 49.8481 45.1331 47.9361 47.0432C46.0241 48.9533 43.4327 50.0274 40.7301 50.0301H35.6501V56.3701H44.5501V57.6501ZM40.7301 42.3801H29.2701C28.5929 42.3774 27.9443 42.1066 27.4663 41.6268C26.9884 41.147 26.7201 40.4973 26.7201 39.8201V16.9101C26.7201 16.2329 26.9884 15.5832 27.4663 15.1034C27.9443 14.6236 28.5929 14.3527 29.2701 14.3501H40.7301C41.409 14.3501 42.0602 14.6198 42.5403 15.0999C43.0203 15.58 43.2901 16.2311 43.2901 16.9101V39.8401C43.2848 40.5156 43.0128 41.1616 42.5332 41.6374C42.0537 42.1132 41.4056 42.3801 40.7301 42.3801ZM29.2701 15.6501C29.1051 15.6501 28.9417 15.6828 28.7894 15.7462C28.6371 15.8097 28.4988 15.9026 28.3826 16.0197C28.2664 16.1368 28.1746 16.2758 28.1123 16.4286C28.0501 16.5815 28.0188 16.7451 28.0201 16.9101V39.8401C28.0201 40.1725 28.1515 40.4915 28.3856 40.7275C28.6197 40.9635 28.9376 41.0975 29.2701 41.1001H40.7301C41.0634 41.0975 41.3824 40.9639 41.6181 40.7281C41.8539 40.4924 41.9875 40.1735 41.9901 39.8401V16.9101C41.9901 16.5759 41.8573 16.2554 41.621 16.0191C41.3847 15.7828 41.0642 15.6501 40.7301 15.6501H29.2701Z" fill="#FF0000"/>
<path d="M12.04 56.7001L57.37 11.3701" stroke="#FF0000" stroke-linecap="round" stroke-linejoin="round"/>
</svg>
