<svg width="70" height="70" viewBox="0 0 70 70" fill="none" xmlns="http://www.w3.org/2000/svg">
<path d="M64 0H6C2.68629 0 0 2.68629 0 6V64C0 67.3137 2.68629 70 6 70H64C67.3137 70 70 67.3137 70 64V6C70 2.68629 67.3137 0 64 0Z" fill="#8a8a8a"/>
<path d="M34.1298 50.1601C30.463 50.1601 26.8785 49.0727 23.8296 47.0355C20.7807 44.9983 18.4044 42.1028 17.0011 38.715C15.5979 35.3273 15.2307 31.5995 15.9461 28.0031C16.6615 24.4067 18.4272 21.1032 21.0201 18.5103C23.613 15.9174 26.9165 14.1517 30.5129 13.4363C34.1093 12.721 37.8371 13.0881 41.2248 14.4913C44.6126 15.8946 47.5081 18.2709 49.5453 21.3198C51.5825 24.3687 52.6698 27.9532 52.6698 31.6201C52.6646 36.5356 50.7095 41.2482 47.2338 44.724C43.758 48.1998 39.0453 50.1548 34.1298 50.1601ZM34.1298 14.2701C30.6983 14.2701 27.3439 15.2876 24.4907 17.1941C21.6375 19.1005 19.4137 21.8102 18.1005 24.9805C16.7874 28.1508 16.4438 31.6393 17.1132 35.0049C17.7827 38.3705 19.4351 41.4619 21.8615 43.8884C24.288 46.3148 27.3795 47.9673 30.745 48.6367C34.1106 49.3062 37.5991 48.9626 40.7694 47.6494C43.9397 46.3362 46.6494 44.1124 48.5558 41.2592C50.4623 38.406 51.4798 35.0516 51.4798 31.6201C51.4772 27.0194 49.6484 22.6079 46.3952 19.3547C43.142 16.1016 38.7305 14.2727 34.1298 14.2701V14.2701ZM34.1298 42.0901C32.0591 42.0901 30.0348 41.476 28.313 40.3256C26.5913 39.1751 25.2493 37.5399 24.4568 35.6268C23.6644 33.7136 23.457 31.6085 23.861 29.5775C24.265 27.5465 25.2622 25.6809 26.7264 24.2167C28.1907 22.7524 30.0563 21.7552 32.0872 21.3513C34.1182 20.9473 36.2234 21.1546 38.1366 21.9471C40.0497 22.7395 41.6849 24.0815 42.8353 25.8033C43.9858 27.5251 44.5998 29.5493 44.5998 31.6201C44.5946 34.3953 43.4898 37.0553 41.5274 39.0176C39.5651 40.98 36.905 42.0848 34.1298 42.0901V42.0901ZM34.1298 22.3501C32.2964 22.3501 30.5042 22.8937 28.9797 23.9124C27.4553 24.931 26.2671 26.3788 25.5655 28.0726C24.8639 29.7665 24.6803 31.6304 25.038 33.4286C25.3956 35.2268 26.2785 36.8786 27.575 38.175C28.8714 39.4714 30.5232 40.3543 32.3214 40.712C34.1196 41.0697 35.9835 40.8861 37.6773 40.1844C39.3712 39.4828 40.819 38.2946 41.8376 36.7702C42.8562 35.2458 43.3999 33.4535 43.3999 31.6201C43.3972 29.1624 42.4197 26.806 40.6818 25.0681C38.9439 23.3302 36.5876 22.3527 34.1298 22.3501V22.3501ZM34.1298 38.5001C32.7691 38.5001 31.4389 38.0966 30.3075 37.3406C29.1761 36.5846 28.2943 35.5101 27.7735 34.2529C27.2528 32.9958 27.1166 31.6125 27.382 30.2779C27.6475 28.9433 28.3028 27.7174 29.2649 26.7552C30.2271 25.793 31.453 25.1378 32.7876 24.8723C34.1222 24.6068 35.5056 24.7431 36.7627 25.2638C38.0199 25.7845 39.0944 26.6664 39.8504 27.7978C40.6063 28.9292 41.0098 30.2594 41.0098 31.6201C41.0072 33.444 40.2815 35.1924 38.9918 36.4821C37.7021 37.7717 35.9537 38.4974 34.1298 38.5001ZM34.1298 25.9401C33.0064 25.9401 31.9083 26.2732 30.9742 26.8973C30.0401 27.5215 29.3121 28.4086 28.8822 29.4465C28.4523 30.4844 28.3398 31.6264 28.559 32.7282C28.7781 33.83 29.3191 34.8421 30.1135 35.6365C30.9078 36.4308 31.9199 36.9718 33.0217 37.1909C34.1236 37.4101 35.2656 37.2976 36.3035 36.8677C37.3414 36.4378 38.2285 35.7098 38.8526 34.7758C39.4767 33.8417 39.8098 32.7435 39.8098 31.6201C39.8072 30.1145 39.2079 28.6713 38.1433 27.6066C37.0787 26.542 35.6355 25.9427 34.1298 25.9401Z" fill="#FF0000"/>
<path d="M34.1299 56.4399C26.0099 56.4399 17.3799 54.66 17.3799 51.35C17.3799 48.73 22.5099 47.4699 25.5699 46.9399L25.7699 48.1299C20.8299 48.9699 18.5799 50.39 18.5799 51.35C18.5799 52.98 24.4999 55.24 34.1299 55.24C43.7599 55.24 49.6799 52.98 49.6799 51.35C49.6799 50.35 47.4499 48.9799 42.5499 48.1299L42.7499 46.95C45.7499 47.48 50.8799 48.74 50.8799 51.35C50.8799 54.66 42.2499 56.4399 34.1299 56.4399Z" fill="#FF0000"/>
<path d="M11.9702 56.7001L57.3002 11.3701" stroke="#FF0000" stroke-linecap="round" stroke-linejoin="round"/>
</svg>
