<svg width="70" height="70" viewBox="0 0 70 70" fill="none" xmlns="http://www.w3.org/2000/svg">
<path opacity="0.6" d="M64 0H6C2.68629 0 0 2.68629 0 6V64C0 67.3137 2.68629 70 6 70H64C67.3137 70 70 67.3137 70 64V6C70 2.68629 67.3137 0 64 0Z" fill="black"/>
<path d="M34.9998 54.1401C34.815 54.1375 34.6384 54.0629 34.5077 53.9322C34.377 53.8015 34.3024 53.6249 34.2998 53.4401C34.2998 52.6975 34.0048 51.9853 33.4797 51.4602C32.9546 50.9351 32.2424 50.6401 31.4998 50.6401H17.4798C16.3667 50.6374 15.3 50.1941 14.5129 49.407C13.7258 48.62 13.2824 47.5532 13.2798 46.4401V21.0601C13.2785 20.5072 13.3861 19.9595 13.5964 19.4482C13.8068 18.937 14.1158 18.4721 14.5058 18.0803C14.8958 17.6884 15.3592 17.3772 15.8695 17.1644C16.3797 16.9516 16.9269 16.8414 17.4798 16.8401H31.4798C32.173 16.8403 32.8555 17.0121 33.4662 17.3401C34.0769 17.6681 34.5969 18.1422 34.9798 18.7201C35.3634 18.1428 35.8835 17.6692 36.4941 17.3412C37.1047 17.0133 37.7867 16.8412 38.4798 16.8401H52.4798C53.5929 16.8427 54.6596 17.2861 55.4467 18.0732C56.2338 18.8603 56.6772 19.927 56.6798 21.0401V46.4401C56.6772 47.5532 56.2338 48.62 55.4467 49.407C54.6596 50.1941 53.5929 50.6374 52.4798 50.6401H38.4798C37.7372 50.6401 37.025 50.9351 36.4999 51.4602C35.9748 51.9853 35.6798 52.6975 35.6798 53.4401C35.6799 53.6223 35.6089 53.7974 35.4819 53.9281C35.3549 54.0588 35.182 54.1349 34.9998 54.1401V54.1401ZM38.4998 18.2601C37.758 18.2627 37.0473 18.5586 36.5228 19.0831C35.9983 19.6077 35.7024 20.3183 35.6998 21.0601V50.3101C36.4688 49.6195 37.4663 49.2384 38.4998 49.2401H52.4998C53.2424 49.2401 53.9546 48.9451 54.4797 48.42C55.0048 47.8949 55.2998 47.1827 55.2998 46.4401V21.0601C55.2998 20.3175 55.0048 19.6053 54.4797 19.0802C53.9546 18.5551 53.2424 18.2601 52.4998 18.2601H38.4998ZM17.4998 18.2601C16.758 18.2627 16.0473 18.5586 15.5228 19.0831C14.9983 19.6077 14.7024 20.3183 14.6998 21.0601V46.4401C14.7024 47.1819 14.9983 47.8925 15.5228 48.4171C16.0473 48.9416 16.758 49.2375 17.4998 49.2401H31.4998C32.5338 49.2355 33.5324 49.617 34.2998 50.3101V21.0601C34.2998 20.3175 34.0048 19.6053 33.4797 19.0802C32.9546 18.5551 32.2424 18.2601 31.4998 18.2601H17.4998Z" fill="white"/>
</svg>
