<svg width="70" height="70" viewBox="0 0 70 70" fill="none" xmlns="http://www.w3.org/2000/svg">
<path opacity="0.6" d="M64 0H6C2.68629 0 0 2.68629 0 6V64C0 67.3137 2.68629 70 6 70H64C67.3137 70 70 67.3137 70 64V6C70 2.68629 67.3137 0 64 0Z" fill="black"/>
<path d="M53.9998 54.7H29.9998C29.5139 54.7 29.0328 54.6043 28.5839 54.4184C28.135 54.2325 27.7271 53.9599 27.3835 53.6163C27.0399 53.2728 26.7674 52.8649 26.5815 52.416C26.3955 51.967 26.2998 51.4859 26.2998 51V42.7H15.9998C15.0185 42.7 14.0774 42.3102 13.3835 41.6163C12.6896 40.9224 12.2998 39.9813 12.2998 39V21C12.2998 20.0187 12.6896 19.0776 13.3835 18.3837C14.0774 17.6898 15.0185 17.3 15.9998 17.3H39.9998C40.9811 17.3 41.9222 17.6898 42.6161 18.3837C43.31 19.0776 43.6998 20.0187 43.6998 21V29.3H53.9998C54.4857 29.3 54.9668 29.3957 55.4157 29.5817C55.8646 29.7676 56.2725 30.0402 56.6161 30.3837C56.9597 30.7273 57.2322 31.1352 57.4182 31.5841C57.6041 32.033 57.6998 32.5141 57.6998 33V51C57.6998 51.4859 57.6041 51.967 57.4182 52.416C57.2322 52.8649 56.9597 53.2728 56.6161 53.6163C56.2725 53.9599 55.8646 54.2325 55.4157 54.4184C54.9668 54.6043 54.4857 54.7 53.9998 54.7ZM27.6998 42V51C27.6998 51.61 27.9421 52.195 28.3734 52.6263C28.8048 53.0577 29.3898 53.3 29.9998 53.3H53.9998C54.6098 53.3 55.1948 53.0577 55.6261 52.6263C56.0575 52.195 56.2998 51.61 56.2998 51V33C56.2998 32.39 56.0575 31.805 55.6261 31.3737C55.1948 30.9423 54.6098 30.7 53.9998 30.7H29.9998C29.3898 30.7 28.8048 30.9423 28.3734 31.3737C27.9421 31.805 27.6998 32.39 27.6998 33V42ZM15.9998 18.7C15.3898 18.7 14.8048 18.9423 14.3734 19.3737C13.9421 19.805 13.6998 20.39 13.6998 21V39C13.6998 39.61 13.9421 40.195 14.3734 40.6263C14.8048 41.0577 15.3898 41.3 15.9998 41.3H26.2998V33C26.2998 32.5141 26.3955 32.033 26.5815 31.5841C26.7674 31.1352 27.0399 30.7273 27.3835 30.3837C27.7271 30.0402 28.135 29.7676 28.5839 29.5817C29.0328 29.3957 29.5139 29.3 29.9998 29.3H42.2998V21C42.2998 20.39 42.0575 19.805 41.6261 19.3737C41.1948 18.9423 40.6098 18.7 39.9998 18.7H15.9998Z" fill="white"/>
</svg>
