<svg width="70" height="70" viewBox="0 0 70 70" fill="none" xmlns="http://www.w3.org/2000/svg">
<path d="M64 0H6C2.68629 0 0 2.68629 0 6V64C0 67.3137 2.68629 70 6 70H64C67.3137 70 70 67.3137 70 64V6C70 2.68629 67.3137 0 64 0Z" fill="#FBD450"/>
<path d="M18.79 58.4999C18.09 58.4999 15.63 58.3999 14.24 57.0599C13.9177 56.7582 13.6622 56.3924 13.49 55.9859C13.3177 55.5794 13.2326 55.1414 13.24 54.7C13.24 52.49 15.08 50.58 16.7 48.9C17.85 47.71 19.04 46.49 19.04 45.59C19.04 44.31 17.9 43.76 16.04 42.96C13.95 42.07 11.35 40.96 11.35 37.7C11.24 25.9 35.49 10.06 36.52 9.38996C36.5852 9.33646 36.661 9.29731 36.7424 9.27509C36.8238 9.25287 36.909 9.24806 36.9923 9.26099C37.0757 9.27391 37.1554 9.30428 37.2263 9.3501C37.2971 9.39592 37.3575 9.45618 37.4035 9.52692C37.4495 9.59766 37.48 9.67734 37.4931 9.76068C37.5063 9.84403 37.5017 9.92918 37.4796 10.0106C37.4576 10.0921 37.4186 10.168 37.3653 10.2333C37.3119 10.2987 37.2454 10.3521 37.17 10.39C36.93 10.55 12.45 26.54 12.55 37.68C12.55 40.16 14.47 40.98 16.55 41.85C18.39 42.63 20.29 43.44 20.29 45.58C20.29 46.96 18.99 48.31 17.61 49.73C16.23 51.15 14.49 52.96 14.49 54.73C14.4829 55.0071 14.5334 55.2826 14.6384 55.5391C14.7434 55.7956 14.9006 56.0274 15.1 56.22C16.32 57.41 18.94 57.32 18.97 57.32C19.1263 57.3242 19.2758 57.3855 19.39 57.4924C19.5042 57.5992 19.5754 57.7442 19.59 57.9C19.5926 57.9788 19.5798 58.0573 19.5521 58.1312C19.5244 58.205 19.4824 58.2726 19.4285 58.3302C19.3746 58.3878 19.3099 58.4342 19.2381 58.4667C19.1663 58.4993 19.0888 58.5174 19.01 58.52L18.79 58.4999Z" fill="#5C5C5C"/>
<path d="M24.8602 58.4901C24.7005 58.49 24.5468 58.4292 24.4302 58.3201C24.3605 58.2485 24.3095 58.161 24.2816 58.0651C24.2537 57.9692 24.2498 57.8679 24.2702 57.7701L25.3702 52.3801C25.3928 52.2636 25.4483 52.156 25.5302 52.0701L52.2302 25.2701C52.3468 25.161 52.5005 25.1002 52.6602 25.1001V25.1001C52.7379 25.0994 52.8151 25.114 52.8872 25.1432C52.9592 25.1724 53.0248 25.2155 53.0802 25.2701L57.4802 29.6701C57.5932 29.7809 57.6579 29.9319 57.6602 30.0901C57.6584 30.2514 57.5938 30.4056 57.4802 30.5201L30.6802 57.2201C30.5957 57.304 30.4875 57.3598 30.3702 57.3801L24.9802 58.4801L24.8602 58.4901ZM26.4802 52.8401L25.6002 57.1801L29.9302 56.2901L56.1802 30.1401L52.6302 26.5901L26.4802 52.8401Z" fill="#5C5C5C"/>
<path d="M26.25 52.2002L30.56 56.5002L25.25 57.5002L26.25 52.2002Z" fill="#5C5C5C"/>
</svg>
