<svg width="70" height="70" viewBox="0 0 70 70" fill="none" xmlns="http://www.w3.org/2000/svg">
<path d="M64 0H6C2.68629 0 0 2.68629 0 6V64C0 67.3137 2.68629 70 6 70H64C67.3137 70 70 67.3137 70 64V6C70 2.68629 67.3137 0 64 0Z" fill="#FBD450"/>
<path d="M47.2599 48.1801H16.0599C15.2845 48.1801 14.5408 47.8728 13.9916 47.3254C13.4424 46.7781 13.1325 46.0354 13.1299 45.2601V24.7401C13.1299 23.963 13.4386 23.2178 13.9881 22.6683C14.5375 22.1188 15.2828 21.8101 16.0599 21.8101H47.2599C48.037 21.8101 48.7822 22.1188 49.3317 22.6683C49.8812 23.2178 50.1899 23.963 50.1899 24.7401V28.7401C50.4661 28.4733 50.7793 28.2476 51.1199 28.0701L57.8599 24.7001C58.1734 24.518 58.5306 24.4246 58.8931 24.4299C59.2556 24.4351 59.6099 24.5388 59.918 24.7299C60.2262 24.9209 60.4766 25.1921 60.6425 25.5145C60.8084 25.8369 60.8835 26.1983 60.8599 26.5601V43.5601C60.8835 43.9218 60.8084 44.2833 60.6425 44.6057C60.4766 44.928 60.2262 45.1993 59.918 45.3903C59.6099 45.5814 59.2556 45.6851 58.8931 45.6903C58.5306 45.6956 58.1734 45.6022 57.8599 45.4201L51.1199 42.0501C50.7768 41.8726 50.4631 41.6432 50.1899 41.3701V45.3701C50.1589 46.1262 49.8366 46.841 49.2904 47.3647C48.7442 47.8885 48.0166 48.1807 47.2599 48.1801V48.1801ZM16.0599 23.2501C15.6647 23.2501 15.2857 23.4071 15.0063 23.6865C14.7269 23.966 14.5699 24.3449 14.5699 24.7401V45.2601C14.5699 45.6552 14.7269 46.0342 15.0063 46.3137C15.2857 46.5931 15.6647 46.7501 16.0599 46.7501H47.2599C47.6551 46.7501 48.034 46.5931 48.3135 46.3137C48.5929 46.0342 48.7499 45.6552 48.7499 45.2601V24.7401C48.7499 24.3449 48.5929 23.966 48.3135 23.6865C48.034 23.4071 47.6551 23.2501 47.2599 23.2501H16.0599ZM51.7599 40.6901L58.4999 44.0601C58.6027 44.1259 58.7193 44.1674 58.8406 44.1813C58.9619 44.1951 59.0848 44.1811 59.1999 44.1401C59.2887 44.0565 59.3567 43.9532 59.3984 43.8386C59.4401 43.724 59.4543 43.6012 59.4399 43.4801V26.4801C59.4551 26.3589 59.4412 26.2359 59.3995 26.1212C59.3578 26.0064 59.2894 25.9032 59.1999 25.8201C59.0848 25.7791 58.9619 25.765 58.8406 25.7789C58.7193 25.7927 58.6027 25.8342 58.4999 25.9001L51.7599 29.2701C51.3106 29.5355 50.9329 29.9064 50.6593 30.3508C50.3857 30.7951 50.2246 31.2994 50.1899 31.8201V38.1001C50.2263 38.6203 50.3881 39.124 50.6615 39.5681C50.9349 40.0121 51.3118 40.3834 51.7599 40.6501V40.6901Z" fill="#5C5C5C"/>
<path d="M18.3901 31.3501H21.6001C23.6801 31.3501 25.1901 32.1001 25.1901 34.2401C25.1901 36.3801 23.6801 37.2401 21.6001 37.2401H19.7201V41.5701H18.3901V31.3501ZM21.3901 36.2101C22.9801 36.2101 23.8601 35.5501 23.8601 34.2101C23.8601 32.8701 22.9801 32.3801 21.3901 32.3801H19.7001V36.1801L21.3901 36.2101ZM22.3401 36.2101L25.4701 41.5901H23.9801L21.3101 36.9001L22.3401 36.2101Z" fill="#5C5C5C"/>
<path d="M26.8301 31.3501H33.1801V32.4601H28.1801V35.6601H32.4301V36.7701H28.1801V40.4901H33.3701V41.6001H26.8701L26.8301 31.3501Z" fill="#5C5C5C"/>
<path d="M34.27 36.4699C34.27 33.1799 36.19 31.1599 38.86 31.1599C39.3909 31.162 39.9156 31.2742 40.401 31.4893C40.8864 31.7045 41.3219 32.0179 41.68 32.4099L40.93 33.2399C40.6689 32.9499 40.3496 32.718 39.993 32.5595C39.6363 32.401 39.2503 32.3193 38.86 32.3199C36.91 32.3199 35.63 33.8999 35.63 36.4399C35.63 38.9799 36.91 40.6299 38.86 40.6299C39.3022 40.6243 39.7378 40.521 40.1354 40.3273C40.533 40.1337 40.8829 39.8546 41.16 39.5099L41.91 40.2999C41.5293 40.7725 41.046 41.1522 40.4968 41.4103C39.9476 41.6685 39.3468 41.7983 38.74 41.7899C36.21 41.8399 34.27 39.8399 34.27 36.4699Z" fill="#5C5C5C"/>
<path d="M43.3798 40.84C43.3876 40.6659 43.4464 40.4979 43.5488 40.3569C43.6513 40.2159 43.7929 40.1081 43.956 40.0468C44.1192 39.9855 44.2967 39.9735 44.4667 40.0122C44.6366 40.051 44.7914 40.1388 44.9119 40.2647C45.0324 40.3906 45.1133 40.5491 45.1445 40.7206C45.1757 40.892 45.1559 41.0689 45.0875 41.2292C45.0192 41.3895 44.9052 41.5262 44.7599 41.6224C44.6145 41.7185 44.4441 41.7698 44.2698 41.77C44.1495 41.7701 44.0304 41.7459 43.9197 41.6986C43.8091 41.6514 43.7091 41.5823 43.6259 41.4953C43.5427 41.4084 43.478 41.3055 43.4357 41.1929C43.3934 41.0803 43.3744 40.9602 43.3798 40.84V40.84Z" fill="#5C5C5C"/>
</svg>
