<svg width="70" height="70" viewBox="0 0 70 70" fill="none" xmlns="http://www.w3.org/2000/svg">
<path opacity="0.6" d="M64 0H6C2.68629 0 0 2.68629 0 6V64C0 67.3137 2.68629 70 6 70H64C67.3137 70 70 67.3137 70 64V6C70 2.68629 67.3137 0 64 0Z" fill="black"/>
<path d="M17.5801 55.3799L16.8701 54.6699L20.8701 50.6699L16.8701 46.6699L17.5801 45.9599L22.2801 50.6599L17.5801 55.3799ZM50.7901 24.0799L46.0901 19.3799L50.7901 14.6699L51.4901 15.3799L47.4901 19.3799L51.4901 23.3799L50.7901 24.0799Z" fill="white"/>
<path d="M52.88 55.6301H30.27C29.6494 55.6301 29.0542 55.3836 28.6154 54.9448C28.1766 54.5059 27.93 53.9108 27.93 53.2902V41.7101H16.36C16.0532 41.7115 15.7491 41.6521 15.4653 41.5356C15.1815 41.4191 14.9234 41.2477 14.706 41.0312C14.4886 40.8148 14.3161 40.5575 14.1983 40.2741C14.0806 39.9908 14.02 39.687 14.02 39.3801V16.7701C14.02 16.4628 14.0805 16.1586 14.1981 15.8747C14.3157 15.5908 14.4881 15.3328 14.7054 15.1155C14.9227 14.8983 15.1806 14.7259 15.4645 14.6083C15.7484 14.4907 16.0527 14.4302 16.36 14.4302H38.97C39.2773 14.4302 39.5816 14.4907 39.8655 14.6083C40.1494 14.7259 40.4073 14.8983 40.6246 15.1155C40.8419 15.3328 41.0143 15.5908 41.1319 15.8747C41.2495 16.1586 41.31 16.4628 41.31 16.7701V28.3401H52.88C53.5006 28.3401 54.0958 28.5867 54.5346 29.0255C54.9735 29.4643 55.22 30.0596 55.22 30.6802V53.2902C55.22 53.9108 54.9735 54.5059 54.5346 54.9448C54.0958 55.3836 53.5006 55.6301 52.88 55.6301ZM28.53 41.1102H29.13V53.2902C29.13 53.5925 29.2501 53.8825 29.4639 54.0963C29.6777 54.31 29.9677 54.4302 30.27 54.4302H52.88C53.1824 54.4302 53.4723 54.31 53.6861 54.0963C53.8999 53.8825 54.02 53.5925 54.02 53.2902V30.6802C54.02 30.3778 53.8999 30.0878 53.6861 29.874C53.4723 29.6602 53.1824 29.5402 52.88 29.5402H40.95L40.52 29.9702L39.67 29.1301L40.11 28.6901V16.7701C40.1074 16.4686 39.9865 16.1801 39.7732 15.9669C39.56 15.7537 39.2715 15.6327 38.97 15.6301H16.36C16.0577 15.6301 15.7677 15.7503 15.5539 15.9641C15.3401 16.1778 15.22 16.4678 15.22 16.7701V39.3801C15.2226 39.6807 15.3439 39.9682 15.5574 40.1798C15.7709 40.3914 16.0594 40.5101 16.36 40.5101H28.53V41.1102Z" fill="white"/>
<path d="M38.3822 30.2731L29.2534 39.4019L30.2363 40.3847L39.3651 31.256L38.3822 30.2731Z" fill="white"/>
<path d="M46.41 49.6102L44.76 45.0901H38.22L36.56 49.6102H35L40.67 35.1401H42.48L48.15 49.6102H46.41ZM38.68 43.8401H44.3L41.48 36.0901L38.68 43.8401Z" fill="white"/>
<path d="M21.7101 22.2402C22.4917 22.2396 23.2727 22.1996 24.0501 22.1202C24.2201 22.1202 24.7201 22.1202 24.8001 21.6102C24.8001 21.3202 25.1001 19.4402 25.1201 19.2502C25.1401 19.0602 25.1801 18.9502 25.3501 18.9502C25.5201 18.9502 26.2501 19.2702 26.3501 19.3302C26.4501 19.3902 26.5301 19.4302 26.5301 19.5402C26.5301 19.6502 26.4301 19.7302 26.3501 19.7902C26.0101 20.0402 25.9101 20.6302 25.8201 21.3802C25.8201 21.4302 25.8201 21.4702 25.8201 21.5102C25.8172 21.5517 25.8232 21.5933 25.8377 21.6323C25.8522 21.6712 25.8749 21.7066 25.9043 21.736C25.9337 21.7654 25.9691 21.7881 26.0081 21.8027C26.047 21.8172 26.0887 21.8232 26.1301 21.8202H26.4301C27.3023 21.6465 28.1637 21.4228 29.0101 21.1502C29.1403 21.0926 29.2786 21.0555 29.4201 21.0402C29.7201 21.0402 29.8201 21.6902 29.8201 21.8402C29.8201 21.9902 29.7001 22.1302 29.2601 22.2402C28.2601 22.4702 27.1401 22.7402 26.1401 22.8902C26.0188 22.8934 25.9012 22.9333 25.803 23.0048C25.7048 23.0762 25.6306 23.1757 25.5901 23.2902C25.5901 23.3702 25.5101 24.1302 25.5101 24.2302C25.5088 24.2696 25.5152 24.3089 25.5291 24.3458C25.5429 24.3827 25.564 24.4165 25.5909 24.4453C25.6178 24.4741 25.6502 24.4973 25.6861 24.5136C25.722 24.5299 25.7607 24.5389 25.8001 24.5402C25.8564 24.5499 25.9139 24.5499 25.9701 24.5402C26.5432 24.428 27.1262 24.3743 27.7101 24.3802C30.4501 24.3802 32.9801 25.7802 32.9801 28.8002C32.9801 31.0002 31.5601 32.5502 29.7001 33.5502C28.9593 33.9464 28.169 34.2423 27.3501 34.4302C26.9901 34.4302 26.7801 33.8702 26.7801 33.6802C26.7801 33.4902 26.8701 33.5102 26.9901 33.4902C27.5157 33.3754 28.0283 33.2079 28.5201 32.9902C30.3001 32.2302 31.8801 30.9902 31.8801 28.9002C31.9137 28.2532 31.7538 27.6109 31.4207 27.0552C31.0877 26.4995 30.5966 26.0556 30.0101 25.7802C29.6775 25.6273 29.3234 25.5261 28.9601 25.4802C28.6501 25.4802 28.5201 25.7002 28.4001 25.9502C27.7678 27.422 26.8885 28.7748 25.8001 29.9502C25.7357 30.0086 25.6839 30.0795 25.6478 30.1586C25.6117 30.2377 25.592 30.3233 25.5901 30.4102C25.5901 30.5302 25.7001 31.2302 25.7401 31.4102C25.7494 31.4598 25.7494 31.5106 25.7401 31.5602C25.7401 31.8302 25.2801 31.9602 25.0701 31.9602C24.8601 31.9602 24.7501 31.7702 24.7101 31.5602C24.6701 31.3502 24.7101 31.2502 24.5001 31.2502C24.4614 31.247 24.4224 31.2525 24.386 31.2664C24.3497 31.2802 24.3169 31.302 24.2901 31.3302C23.3736 32.146 22.2356 32.6716 21.0201 32.8402C20.7763 32.8537 20.5325 32.8136 20.3059 32.7227C20.0793 32.6317 19.8753 32.4921 19.7085 32.3138C19.5416 32.1355 19.4159 31.9228 19.3402 31.6907C19.2644 31.4585 19.2405 31.2126 19.2701 30.9702C19.2701 28.4202 21.9101 26.0902 24.0801 25.1302C24.205 25.0936 24.3132 25.0147 24.3861 24.907C24.4591 24.7994 24.4924 24.6697 24.4801 24.5402C24.4801 24.4402 24.5601 23.5402 24.5601 23.5402C24.5629 23.4983 24.557 23.4563 24.5425 23.4169C24.5281 23.3774 24.5055 23.3414 24.4763 23.3113C24.4471 23.2811 24.4118 23.2574 24.3729 23.2418C24.3339 23.2261 24.2921 23.2187 24.2501 23.2202C24.1001 23.2202 22.4101 23.4902 21.3401 23.4902C20.8801 23.4902 20.5901 23.5402 20.5901 22.7602C20.5901 22.4002 20.7101 22.3402 21.0301 22.3402L21.7101 22.2402ZM20.3001 30.9102C20.3001 31.4002 20.4501 31.7902 21.0301 31.7902C22.0301 31.7902 23.4201 30.7902 24.2001 30.1602C24.2993 30.0885 24.3794 29.9935 24.4334 29.8837C24.4874 29.7739 24.5138 29.6525 24.5101 29.5302C24.5101 29.5302 24.5101 29.4302 24.5101 29.3902C24.4501 28.6702 24.4301 27.9202 24.4301 27.1902C24.4301 26.9302 24.4301 26.6402 24.4301 26.3702C24.4301 26.1002 24.3701 26.1002 24.2001 26.1002C23.7601 26.1002 20.3001 28.4602 20.3001 30.9102V30.9102ZM25.6601 25.5702C25.3701 25.7402 25.4101 26.1202 25.4101 27.0602C25.4101 27.3902 25.4101 28.1502 25.4101 28.4402C25.4101 28.5102 25.4101 28.6702 25.5201 28.6702C25.8701 28.6702 27.5201 25.7802 27.5201 25.4002C27.5201 25.2802 27.3701 25.2802 27.2901 25.2802C26.7347 25.288 26.1842 25.3859 25.6601 25.5702V25.5702Z" fill="white"/>
</svg>
