<svg width="70" height="70" viewBox="0 0 70 70" fill="none" xmlns="http://www.w3.org/2000/svg">
<path d="M64 0H6C2.68629 0 0 2.68629 0 6V64C0 67.3137 2.68629 70 6 70H64C67.3137 70 70 67.3137 70 64V6C70 2.68629 67.3137 0 64 0Z" fill="#FBD450"/>
<path d="M37.7802 54.0999H32.1502L31.2202 48.5199C30.1301 48.2133 29.0797 47.7804 28.0901 47.2299L23.4802 50.4699L19.4802 46.4699L22.7602 41.8899C22.1981 40.9013 21.7614 39.8465 21.4602 38.7499L15.9102 37.7499V32.1399L21.4702 31.2199C21.7714 30.1233 22.2081 29.0685 22.7702 28.0799L19.5402 23.4499L23.5402 19.4499L28.1402 22.7399C29.1262 22.1895 30.1733 21.7565 31.2602 21.4499L32.1702 15.8799H37.8102L38.8102 21.4699C39.8997 21.7731 40.9477 22.2097 41.9302 22.7699L46.5402 19.4499L50.5402 23.4499L47.2702 28.1199C47.8197 29.0947 48.2494 30.1321 48.5502 31.2099L54.1702 32.1299V37.7699L48.5502 38.7699C48.2513 39.8515 47.8215 40.8926 47.2702 41.8699L50.6002 46.4899L46.6002 50.4899L41.9302 47.2199C40.9544 47.7793 39.9131 48.2159 38.8302 48.5199L37.7802 54.0999ZM33.1602 52.8999H36.7802L37.7302 47.5399L38.1002 47.4399C39.3333 47.131 40.5131 46.6389 41.6002 45.9799L41.9402 45.7699L46.4102 48.9099L48.9602 46.3499L45.7702 41.9199L45.9802 41.5799C46.6291 40.4972 47.1144 39.3246 47.4202 38.0999L47.5102 37.7199L52.9002 36.7199V33.1099L47.5102 32.2299L47.4202 31.8399C47.1085 30.6156 46.62 29.4433 45.9702 28.3599L45.7702 28.0199L48.9102 23.5399L46.3602 20.9899L41.9402 24.1699L41.6002 23.9599C40.5099 23.3026 39.3265 22.8137 38.0901 22.5099L37.7102 22.4099L36.7802 17.0499H33.1602L32.2902 22.3999L31.9102 22.4899C30.6691 22.789 29.4818 23.2781 28.3902 23.9399L28.0502 24.1399L23.6402 20.9899L21.0901 23.5399L24.1902 27.9799L23.9902 28.3099C23.3247 29.4055 22.8291 30.5957 22.5202 31.8399L22.4202 32.2199L17.1002 33.1099V36.7199L22.4202 37.6599L22.5102 38.0399C22.8235 39.2826 23.3188 40.4721 23.9802 41.5699L24.1902 41.9099L21.0402 46.2999L23.6002 48.8599L28.0402 45.7499L28.3702 45.9499C29.4623 46.6107 30.6495 47.0997 31.8902 47.3999L32.2702 47.4999L33.1602 52.8999ZM35.0002 41.7599C33.6607 41.7599 32.3515 41.3626 31.2379 40.6183C30.1244 39.8739 29.2566 38.816 28.7445 37.5784C28.2324 36.3407 28.099 34.979 28.361 33.6655C28.623 32.3519 29.2688 31.1457 30.2166 30.1993C31.1644 29.2529 32.3716 28.6088 33.6855 28.3488C34.9995 28.0887 36.361 28.2242 37.5979 28.7381C38.8348 29.252 39.8914 30.1213 40.6341 31.236C41.3768 32.3506 41.7722 33.6605 41.7702 34.9999C41.7702 35.8885 41.595 36.7684 41.2546 37.5892C40.9143 38.41 40.4155 39.1557 39.7867 39.7835C39.1579 40.4114 38.4115 40.9091 37.5902 41.2482C36.7689 41.5874 35.8887 41.7612 35.0002 41.7599V41.7599ZM35.0002 29.4299C33.8985 29.4299 32.8216 29.7566 31.9056 30.3686C30.9897 30.9806 30.2757 31.8506 29.8542 32.8683C29.4326 33.8861 29.3223 35.0061 29.5372 36.0865C29.7521 37.167 30.2826 38.1595 31.0616 38.9385C31.8406 39.7175 32.833 40.248 33.9135 40.4629C34.994 40.6778 36.1139 40.5675 37.1317 40.1459C38.1495 39.7244 39.0194 39.0104 39.6314 38.0944C40.2435 37.1784 40.5702 36.1015 40.5702 34.9999C40.5702 33.5226 39.9833 32.1059 38.9388 31.0613C37.8942 30.0168 36.4774 29.4299 35.0002 29.4299V29.4299Z" fill="#5C5C5C"/>
</svg>
