<svg id="レイヤー_1" data-name="レイヤー 1" xmlns="http://www.w3.org/2000/svg" viewBox="0 0 70 70"><defs><style>.cls-1{fill:red;opacity:0.6;}.cls-2{fill:#fff;}</style></defs><rect class="cls-1" width="70" height="70" rx="6"/><path class="cls-2" d="M396.39,700.07h-23.8a2.1,2.1,0,0,1-2.1-2.1v-30.8a2.11,2.11,0,0,1,2.1-2.1h23.8a2.11,2.11,0,0,1,2.1,2.1h-1.4a.7.7,0,0,0-.7-.7h-23.8a.71.71,0,0,0-.7.7V698a.7.7,0,0,0,.7.7h23.8a.7.7,0,0,0,.7-.7h1.4A2.1,2.1,0,0,1,396.39,700.07Z" transform="translate(-348.52 -648.16)"/><path class="cls-2" d="M397.13,690.9a.67.67,0,0,1-.49-.21.69.69,0,0,1,0-1l6.42-6.43H382.39a.7.7,0,0,1,0-1.4h20.67l-6.42-6.43a.69.69,0,0,1,0-1,.71.71,0,0,1,1,0l8.11,8.12-8.11,8.12A.7.7,0,0,1,397.13,690.9Z" transform="translate(-348.52 -648.16)"/><path class="cls-2" d="M397.09,667.17v4.2l1.4,1.4v-5.6Zm0,0" transform="translate(-348.52 -648.16)"/><path class="cls-2" d="M397.09,698v-4.2l1.4-1.4V698Zm0,0" transform="translate(-348.52 -648.16)"/></svg>