<svg width="44" height="44" viewBox="0 0 44 44" fill="none" xmlns="http://www.w3.org/2000/svg">
<path d="M38 0H6C2.68629 0 0 2.68629 0 6V38C0 41.3137 2.68629 44 6 44H38C41.3137 44 44 41.3137 44 38V6C44 2.68629 41.3137 0 38 0Z" fill="#FBD450"/>
<path d="M11.65 36.84C11.5509 36.8397 11.4545 36.8075 11.3752 36.748C11.296 36.6886 11.238 36.605 11.21 36.51C11.1835 36.4137 11.1897 36.3114 11.2277 36.219C11.2657 36.1267 11.3334 36.0496 11.42 36C12.9 35.11 13.49 33.68 13.21 31.64H10.35C9.55917 31.6246 8.80501 31.3036 8.2457 30.7443C7.68638 30.185 7.36537 29.4308 7.35001 28.64V13.04C7.34985 12.2387 7.664 11.4694 8.22495 10.8972C8.78589 10.325 9.54889 9.99572 10.35 9.98001H33.75C34.5616 9.98001 35.3399 10.3024 35.9138 10.8763C36.4876 11.4501 36.81 12.2284 36.81 13.04V28.64C36.7943 29.4411 36.465 30.2041 35.8928 30.765C35.3207 31.326 34.5513 31.6401 33.75 31.64H19.07C18.5325 33.1739 17.5275 34.5007 16.1964 35.4335C14.8654 36.3663 13.2753 36.8582 11.65 36.84V36.84ZM10.35 10.84C9.78153 10.8426 9.23722 11.0703 8.83618 11.4732C8.43514 11.8762 8.21002 12.4215 8.21002 12.99V28.59C8.21002 29.1576 8.43546 29.7019 8.83679 30.1032C9.23812 30.5045 9.78244 30.73 10.35 30.73H13.6C13.7076 30.7307 13.8116 30.7691 13.8938 30.8385C13.976 30.908 14.0313 31.004 14.05 31.11C14.2605 31.914 14.2796 32.7561 14.106 33.5688C13.9323 34.3815 13.5707 35.1422 13.05 35.79C14.281 35.5521 15.424 34.9832 16.356 34.1446C17.288 33.3059 17.9739 32.2292 18.34 31.03C18.3726 30.9422 18.4312 30.8663 18.5081 30.8127C18.5849 30.7591 18.6763 30.7303 18.77 30.73H33.72C34.2885 30.73 34.8338 30.5048 35.2368 30.1038C35.6397 29.7027 35.8674 29.1585 35.87 28.59V12.99C35.8674 12.4206 35.64 11.8753 35.2374 11.4726C34.8348 11.07 34.2894 10.8426 33.72 10.84H10.35Z" fill="#5C5C5C"/>
<path d="M28.55 22.55C28.2015 22.55 27.8608 22.4465 27.5712 22.2527C27.2815 22.0588 27.056 21.7834 26.923 21.4612C26.7901 21.139 26.7559 20.7847 26.8246 20.443C26.8933 20.1013 27.062 19.7877 27.3091 19.542C27.5562 19.2962 27.8708 19.1294 28.2128 19.0626C28.5549 18.9958 28.9091 19.0321 29.2305 19.1669C29.5519 19.3016 29.8261 19.5288 30.0183 19.8195C30.2105 20.1102 30.312 20.4515 30.31 20.8C30.31 21.0307 30.2644 21.2591 30.1759 21.472C30.0873 21.685 29.9575 21.8784 29.7939 22.041C29.6304 22.2036 29.4363 22.3323 29.2228 22.4197C29.0093 22.507 28.7807 22.5514 28.55 22.55ZM28.55 19.95C28.3263 19.9526 28.1127 20.0434 27.9554 20.2025C27.7982 20.3616 27.71 20.5763 27.71 20.8C27.7327 21.0083 27.8315 21.2008 27.9875 21.3407C28.1434 21.4806 28.3455 21.558 28.555 21.558C28.7645 21.558 28.9666 21.4806 29.1226 21.3407C29.2785 21.2008 29.3773 21.0083 29.4 20.8C29.4 20.5746 29.3105 20.3584 29.1511 20.199C28.9917 20.0396 28.7755 19.95 28.55 19.95ZM22.05 22.55C21.7015 22.55 21.3608 22.4465 21.0712 22.2527C20.7815 22.0588 20.556 21.7834 20.423 21.4612C20.2901 21.139 20.2559 20.7847 20.3246 20.443C20.3933 20.1013 20.562 19.7877 20.8091 19.542C21.0562 19.2962 21.3708 19.1294 21.7128 19.0626C22.0549 18.9958 22.4091 19.0321 22.7305 19.1669C23.0519 19.3016 23.3261 19.5288 23.5183 19.8195C23.7105 20.1102 23.812 20.4515 23.81 20.8C23.81 21.2624 23.627 21.706 23.301 22.0339C22.975 22.3618 22.5324 22.5474 22.07 22.55H22.05ZM22.05 19.95C21.8263 19.9526 21.6127 20.0434 21.4554 20.2025C21.2982 20.3616 21.21 20.5763 21.21 20.8C21.2327 21.0083 21.3315 21.2008 21.4875 21.3407C21.6434 21.4806 21.8455 21.558 22.055 21.558C22.2645 21.558 22.4666 21.4806 22.6226 21.3407C22.7785 21.2008 22.8773 21.0083 22.9 20.8C22.9001 20.578 22.8133 20.3648 22.6582 20.2059C22.5031 20.0471 22.292 19.9552 22.07 19.95H22.05ZM15.55 22.55C15.2015 22.55 14.8608 22.4465 14.5712 22.2527C14.2815 22.0588 14.056 21.7834 13.923 21.4612C13.7901 21.139 13.7559 20.7847 13.8246 20.443C13.8933 20.1013 14.062 19.7877 14.3091 19.542C14.5562 19.2962 14.8708 19.1294 15.2128 19.0626C15.5549 18.9958 15.9091 19.0321 16.2305 19.1669C16.5519 19.3016 16.8261 19.5288 17.0183 19.8195C17.2105 20.1102 17.312 20.4515 17.31 20.8C17.31 21.0307 17.2644 21.2591 17.1759 21.472C17.0873 21.685 16.9575 21.8784 16.7939 22.041C16.6304 22.2036 16.4363 22.3323 16.2228 22.4197C16.0093 22.507 15.7807 22.5514 15.55 22.55ZM15.55 19.95C15.3263 19.9526 15.1127 20.0434 14.9554 20.2025C14.7982 20.3616 14.71 20.5763 14.71 20.8C14.7327 21.0083 14.8315 21.2008 14.9875 21.3407C15.1434 21.4806 15.3455 21.558 15.555 21.558C15.7645 21.558 15.9666 21.4806 16.1226 21.3407C16.2785 21.2008 16.3773 21.0083 16.4 20.8C16.4 20.5746 16.3105 20.3584 16.1511 20.199C15.9917 20.0396 15.7755 19.95 15.55 19.95Z" fill="#5C5C5C"/>
</svg>
