<svg id="レイヤー_1" data-name="レイヤー 1" xmlns="http://www.w3.org/2000/svg" viewBox="0 0 44 44"><defs><style>.cls-1{opacity:0.6;}.cls-2{fill:#fff;}</style></defs><rect class="cls-1" width="44" height="44" rx="6"/><path class="cls-2" d="M373.17,698a.46.46,0,0,1-.44-.33.45.45,0,0,1,.21-.51c1.49-.89,2.07-2.32,1.79-4.36h-2.86a3.06,3.06,0,0,1-3.05-3v-15.6a3.06,3.06,0,0,1,3.05-3.06h23.4a3.06,3.06,0,0,1,3.06,3.06v15.6a3.06,3.06,0,0,1-3.06,3H380.64A7.79,7.79,0,0,1,373.17,698Zm-1.3-26a2.15,2.15,0,0,0-2.14,2.15v15.6a2.14,2.14,0,0,0,2.14,2.14h3.25a.46.46,0,0,1,.45.38,5.32,5.32,0,0,1-1,4.68,6.91,6.91,0,0,0,5.3-4.76.44.44,0,0,1,.42-.3h14.95a2.14,2.14,0,0,0,2.15-2.14v-15.6a2.15,2.15,0,0,0-2.15-2.15Z" transform="translate(-361.52 -661.16)"/><path class="cls-2" d="M390.07,683.71a1.76,1.76,0,1,1,1.76-1.75A1.75,1.75,0,0,1,390.07,683.71Zm0-2.6a.85.85,0,0,0-.84.85.85.85,0,0,0,1.69,0A.85.85,0,0,0,390.07,681.11Zm-6.5,2.6a1.76,1.76,0,1,1,1.76-1.75A1.75,1.75,0,0,1,383.57,683.71Zm0-2.6a.85.85,0,0,0-.84.85.85.85,0,0,0,1.69,0A.85.85,0,0,0,383.57,681.11Zm-6.5,2.6a1.76,1.76,0,1,1,1.76-1.75A1.75,1.75,0,0,1,377.07,683.71Zm0-2.6a.85.85,0,0,0-.84.85.85.85,0,0,0,1.69,0A.85.85,0,0,0,377.07,681.11Z" transform="translate(-361.52 -661.16)"/></svg>