<svg width="44" height="44" viewBox="0 0 44 44" fill="none" xmlns="http://www.w3.org/2000/svg">
<path d="M38 0H6C2.68629 0 0 2.68629 0 6V38C0 41.3137 2.68629 44 6 44H38C41.3137 44 44 41.3137 44 38V6C44 2.68629 41.3137 0 38 0Z" fill="#FBD450"/>
<path d="M22.07 34.75C19.4989 34.75 16.9854 33.9876 14.8476 32.5591C12.7098 31.1306 11.0435 29.1003 10.0596 26.7249C9.07564 24.3494 8.8182 21.7356 9.3198 19.2138C9.82141 16.6921 11.0596 14.3757 12.8776 12.5576C14.6957 10.7395 17.0121 9.50138 19.5339 8.99977C22.0556 8.49817 24.6695 8.75558 27.0449 9.73952C29.4203 10.7235 31.4507 12.3897 32.8791 14.5275C34.3076 16.6654 35.07 19.1788 35.07 21.75C35.07 25.1978 33.7004 28.5044 31.2624 30.9424C28.8244 33.3804 25.5178 34.75 22.07 34.75V34.75ZM22.07 9.58998C19.665 9.58998 17.314 10.3031 15.3143 11.6393C13.3146 12.9755 11.756 14.8746 10.8356 17.0966C9.91528 19.3185 9.67446 21.7635 10.1437 24.1223C10.6129 26.4811 11.771 28.6478 13.4716 30.3484C15.1722 32.049 17.3389 33.2072 19.6977 33.6763C22.0565 34.1455 24.5015 33.9047 26.7235 32.9843C28.9454 32.064 30.8445 30.5054 32.1807 28.5057C33.5168 26.506 34.23 24.155 34.23 21.75C34.2274 18.5257 32.9454 15.4344 30.6655 13.1545C28.3856 10.8746 25.2942 9.59263 22.07 9.58998V9.58998Z" fill="#5C5C5C"/>
<path d="M21.41 17.16C21.3855 17.16 21.3613 17.1551 21.3387 17.1454C21.3162 17.1357 21.2959 17.1216 21.279 17.1038C21.2622 17.086 21.2491 17.065 21.2407 17.042C21.2323 17.0189 21.2286 16.9945 21.23 16.97V15.6C21.2286 15.5755 21.2323 15.551 21.2407 15.528C21.2491 15.505 21.2622 15.484 21.279 15.4662C21.2959 15.4484 21.3162 15.4342 21.3387 15.4246C21.3613 15.4149 21.3855 15.41 21.41 15.41H22.69C22.7153 15.4085 22.7407 15.4124 22.7644 15.4215C22.7881 15.4305 22.8096 15.4445 22.8276 15.4624C22.8455 15.4804 22.8595 15.5019 22.8685 15.5256C22.8775 15.5493 22.8814 15.5747 22.88 15.6V16.97C22.8814 16.9953 22.8775 17.0207 22.8685 17.0444C22.8595 17.0681 22.8455 17.0896 22.8276 17.1076C22.8096 17.1255 22.7881 17.1394 22.7644 17.1485C22.7407 17.1575 22.7153 17.1614 22.69 17.16H21.41ZM21.41 28.16C21.3855 28.1614 21.361 28.1577 21.338 28.1493C21.315 28.1408 21.294 28.1278 21.2762 28.1109C21.2584 28.0941 21.2442 28.0738 21.2346 28.0513C21.2249 28.0288 21.22 28.0045 21.22 27.98V19.35C21.2185 19.3247 21.2225 19.2993 21.2315 19.2756C21.2405 19.2519 21.2545 19.2304 21.2724 19.2124C21.2904 19.1945 21.3119 19.1805 21.3356 19.1715C21.3593 19.1624 21.3847 19.1585 21.41 19.16H22.61C22.6357 19.1567 22.6619 19.1594 22.6864 19.1678C22.7109 19.1762 22.7332 19.1901 22.7515 19.2085C22.7699 19.2268 22.7838 19.249 22.7922 19.2736C22.8006 19.2981 22.8033 19.3243 22.8 19.35V27.98C22.8017 28.0049 22.7978 28.0299 22.7887 28.0532C22.7795 28.0765 22.7654 28.0975 22.7473 28.1146C22.7291 28.1318 22.7074 28.1448 22.6837 28.1526C22.66 28.1605 22.6348 28.163 22.61 28.16H21.41Z" fill="#5C5C5C"/>
</svg>
