<svg id="レイヤー_1" data-name="レイヤー 1" xmlns="http://www.w3.org/2000/svg" viewBox="0 0 44 44"><defs><style>.cls-1{opacity:0.6;}.cls-2{fill:#fff;}</style></defs><rect class="cls-1" width="44" height="44" rx="6"/><path class="cls-2" d="M362,695.91a13,13,0,1,1,13-13A13,13,0,0,1,362,695.91Zm0-25.16a12.16,12.16,0,1,0,12.16,12.16A12.17,12.17,0,0,0,362,670.75Z" transform="translate(-339.93 -661.16)"/><path class="cls-2" d="M361.34,678.32a.18.18,0,0,1-.18-.19v-1.37a.18.18,0,0,1,.18-.19h1.28a.18.18,0,0,1,.19.19v1.37a.18.18,0,0,1-.19.19Zm0,11a.18.18,0,0,1-.19-.18v-8.63a.18.18,0,0,1,.19-.19h1.2a.17.17,0,0,1,.19.19v8.63a.17.17,0,0,1-.19.18Zm0,0" transform="translate(-339.93 -661.16)"/></svg>