<svg id="レイヤー_1" data-name="レイヤー 1" xmlns="http://www.w3.org/2000/svg" viewBox="0 0 40 40"><defs><style>.cls-1{fill:#00837f;}.cls-2{fill:#fff;}</style></defs><rect class="cls-1" width="40" height="40" rx="4"/><path class="cls-2" d="M380.22,674a.74.74,0,0,0-1.05,0L361.5,691.7a5,5,0,0,0-2.28-.52,3.73,3.73,0,0,0-.57-3.87,3.67,3.67,0,0,0-3.82-.56,3.46,3.46,0,0,0-.63-2.23l17.73-17.73a.74.74,0,0,0-1.05-1L351.64,685a.78.78,0,0,0-.17.26l-5,13.33a.75.75,0,0,0,.16.79.77.77,0,0,0,.53.21.58.58,0,0,0,.26-.05l13.33-5a.78.78,0,0,0,.26-.17l1.09-1.08.12-.12,0,0,18-18A.74.74,0,0,0,380.22,674ZM360,693.16l-8.19,3.1-2.15-2.15,3.1-8.19.33-.33a2.7,2.7,0,0,1-.05,2.26.74.74,0,0,0,.27.85.72.72,0,0,0,.89,0c.49-.39,2.45-1.24,3.36-.32s.17,2.76-.24,3.34a.72.72,0,0,0,0,.86.74.74,0,0,0,.82.28,3.58,3.58,0,0,1,2.19,0Z" transform="translate(-341.93 -663.16)"/><rect class="cls-2" x="373.43" y="665.15" width="2" height="11.31" transform="translate(-706.6 -201.92) rotate(-45)"/></svg>