<svg id="レイヤー_1" data-name="レイヤー 1" xmlns="http://www.w3.org/2000/svg" viewBox="0 0 14.49 19.7"><defs><style>.cls-1{fill:#003634;}</style></defs><path class="cls-1" d="M366.27,693h-8.68v-.59h4.05v-2.88h-2.31a4.65,4.65,0,0,1-4.64-4.64v-3.48h.59v3.48a4,4,0,0,0,4.05,4h5.21a4.05,4.05,0,0,0,4-4v-3.48h.59v3.48a4.65,4.65,0,0,1-4.64,4.64h-2.31v2.88h4Zm-1.73-7h-5.21a1.16,1.16,0,0,1-1.17-1.16V674.47a1.16,1.16,0,0,1,1.17-1.16h5.21a1.16,1.16,0,0,1,1.16,1.16V684.9A1.16,1.16,0,0,1,364.54,686.06Zm-5.21-12.16a.58.58,0,0,0-.58.57V684.9a.58.58,0,0,0,.58.57h5.21a.58.58,0,0,0,.57-.57V674.47a.58.58,0,0,0-.57-.57Z" transform="translate(-354.69 -673.31)"/></svg>