<?xml version="1.0" encoding="UTF-8" standalone="no"?>
<svg
   id="レイヤー_1"
   data-name="レイヤー 1"
   viewBox="0 0 19.7 19.7"
   version="1.1"
   sodipodi:docname="13_a.svg"
   inkscape:version="1.1.1 (3bf5ae0d25, 2021-09-20)"
   xmlns:inkscape="http://www.inkscape.org/namespaces/inkscape"
   xmlns:sodipodi="http://sodipodi.sourceforge.net/DTD/sodipodi-0.dtd"
   xmlns="http://www.w3.org/2000/svg"
   xmlns:svg="http://www.w3.org/2000/svg">
  <sodipodi:namedview
     id="namedview2683"
     pagecolor="#ffffff"
     bordercolor="#666666"
     borderopacity="1.0"
     inkscape:pageshadow="2"
     inkscape:pageopacity="0.0"
     inkscape:pagecheckerboard="0"
     showgrid="false"
     inkscape:zoom="42.233501"
     inkscape:cx="9.8381614"
     inkscape:cy="7.9676085"
     inkscape:window-width="1920"
     inkscape:window-height="1017"
     inkscape:window-x="-8"
     inkscape:window-y="-8"
     inkscape:window-maximized="1"
     inkscape:current-layer="レイヤー_1" />
  <defs
     id="defs2678">
    <style
       id="style2676">.cls-1{fill:red;}</style>
  </defs>
  <path
     class="cls-1"
     d="M 14.21,19.690043 H 5.53 v -0.59 h 4.05 v -2.88 H 7.27 a 4.65,4.65 0 0 1 -4.64,-4.64 V 8.1000431 h 0.59 v 3.4799999 a 4,4 0 0 0 4.05,4 h 5.21 a 4.05,4.05 0 0 0 4,-4 V 8.1000431 h 0.59 v 3.4799999 a 4.65,4.65 0 0 1 -4.64,4.64 h -2.31 v 2.88 h 4 z m -1.73,-7 H 7.27 a 1.16,1.16 0 0 1 -1.17,-1.16 V 1.1600431 A 1.16,1.16 0 0 1 7.27,4.3104256e-5 h 5.21 A 1.16,1.16 0 0 1 13.64,1.1600431 V 11.590043 a 1.16,1.16 0 0 1 -1.16,1.16 z M 7.27,0.5300431 a 0.58,0.58 0 0 0 -0.58,0.57 V 11.590043 a 0.58,0.58 0 0 0 0.58,0.57 h 5.21 a 0.58,0.58 0 0 0 0.57,-0.57 V 1.1600431 a 0.58,0.58 0 0 0 -0.57,-0.57 z"
     id="path2680" />
  <path
     style="fill:none;stroke:#ff0000;stroke-width:0.600016;stroke-linecap:round;stroke-linejoin:miter;stroke-miterlimit:4;stroke-dasharray:none;stroke-opacity:1"
     d="M 0.30026787,18.700252 19.400252,0.300268"
     id="path2775" />
</svg>
