<svg id="レイヤー_1" data-name="レイヤー 1" xmlns="http://www.w3.org/2000/svg" viewBox="0 0 15.87 18.56"><defs><style>.cls-1{fill:#003634;}</style></defs><path class="cls-1" d="M363.33,688.3a7.94,7.94,0,1,1,7.94-7.94A7.94,7.94,0,0,1,363.33,688.3Zm0-15.36a7.43,7.43,0,1,0,7.42,7.42A7.43,7.43,0,0,0,363.33,672.94Zm0,11.9a4.48,4.48,0,1,1,4.48-4.48A4.49,4.49,0,0,1,363.33,684.84Zm0-8.44a4,4,0,1,0,4,4A4,4,0,0,0,363.33,676.4Zm0,6.91a2.95,2.95,0,1,1,2.95-2.95A2.95,2.95,0,0,1,363.33,683.31Zm0-5.38a2.44,2.44,0,1,0,2.43,2.43A2.43,2.43,0,0,0,363.33,677.93Z" transform="translate(-355.4 -672.43)"/><path class="cls-1" d="M363.33,691c-3.47,0-7.17-.77-7.17-2.18,0-1.12,2.2-1.66,3.51-1.89l.08.51c-2.11.36-3.07,1-3.07,1.38,0,.7,2.53,1.66,6.65,1.66s6.66-1,6.66-1.66c0-.41-1-1-3.06-1.38l.09-.5c1.3.22,3.48.76,3.48,1.88C370.5,690.22,366.81,691,363.33,691Z" transform="translate(-355.4 -672.43)"/></svg>