<?xml version="1.0" encoding="UTF-8" standalone="no"?>
<svg
   id="レイヤー_1"
   data-name="レイヤー 1"
   viewBox="0 0 18.56 18.56"
   version="1.1"
   sodipodi:docname="14_a.svg"
   inkscape:version="1.1.1 (3bf5ae0d25, 2021-09-20)"
   xmlns:inkscape="http://www.inkscape.org/namespaces/inkscape"
   xmlns:sodipodi="http://sodipodi.sourceforge.net/DTD/sodipodi-0.dtd"
   xmlns="http://www.w3.org/2000/svg"
   xmlns:svg="http://www.w3.org/2000/svg">
  <sodipodi:namedview
     id="namedview837"
     pagecolor="#ffffff"
     bordercolor="#666666"
     borderopacity="1.0"
     inkscape:pageshadow="2"
     inkscape:pageopacity="0.0"
     inkscape:pagecheckerboard="0"
     showgrid="false"
     inkscape:zoom="44.827587"
     inkscape:cx="9.2911536"
     inkscape:cy="9.2911536"
     inkscape:window-width="1920"
     inkscape:window-height="1017"
     inkscape:window-x="-8"
     inkscape:window-y="-8"
     inkscape:window-maximized="1"
     inkscape:current-layer="レイヤー_1" />
  <defs
     id="defs830">
    <style
       id="style828">.cls-1{fill:red;}</style>
  </defs>
  <path
     class="cls-1"
     d="m 9.28,15.87 a 7.94,7.94 0 1 1 7.94,-7.94 7.94,7.94 0 0 1 -7.94,7.94 z m 0,-15.36 A 7.43,7.43 0 1 0 16.7,7.93 7.43,7.43 0 0 0 9.28,0.51 Z m 0,11.9 a 4.48,4.48 0 1 1 4.48,-4.48 4.49,4.49 0 0 1 -4.48,4.48 z m 0,-8.44 a 4,4 0 1 0 4,4 4,4 0 0 0 -4,-4 z m 0,6.91 a 2.95,2.95 0 1 1 2.95,-2.95 2.95,2.95 0 0 1 -2.95,2.95 z m 0,-5.38 A 2.44,2.44 0 1 0 11.71,7.93 2.43,2.43 0 0 0 9.28,5.5 Z"
     id="path832" />
  <path
     class="cls-1"
     d="m 9.28,18.57 c -3.47,0 -7.17,-0.77 -7.17,-2.18 0,-1.12 2.2,-1.66 3.51,-1.89 l 0.08,0.51 c -2.11,0.36 -3.07,1 -3.07,1.38 0,0.7 2.53,1.66 6.65,1.66 4.12,0 6.66,-1 6.66,-1.66 0,-0.41 -1,-1 -3.06,-1.38 l 0.09,-0.5 c 1.3,0.22 3.48,0.76 3.48,1.88 0,1.4 -3.69,2.18 -7.17,2.18 z"
     id="path834" />
  <path
     style="fill:none;stroke:#ff0000;stroke-width:0.600024;stroke-linecap:round;stroke-linejoin:miter;stroke-miterlimit:4;stroke-dasharray:none;stroke-opacity:1"
     d="M 0.32297622,17.722952 18.282952,0.32297622"
     id="path929" />
</svg>
