<svg id="レイヤー_1" data-name="レイヤー 1" xmlns="http://www.w3.org/2000/svg" viewBox="0 0 17.18 17.18"><defs><style>.cls-1{fill:#003634;}</style></defs><path class="cls-1" d="M356.23,690.19l-.3-.29,1.67-1.67-1.67-1.66.3-.3,2,2Zm13.84-13.05-2-2,2-2,.3.3-1.67,1.66,1.67,1.67Z" transform="translate(-354.74 -673.12)"/><path class="cls-1" d="M371,690.3h-9.43a1,1,0,0,1-1-1V684.5h-4.82a1,1,0,0,1-1-1v-9.43a1,1,0,0,1,1-1h9.42a1,1,0,0,1,1,1v4.83H371a1,1,0,0,1,1,1v9.42A1,1,0,0,1,371,690.3Zm-10.16-6H361v5.07a.49.49,0,0,0,.48.48H371a.48.48,0,0,0,.47-.48V679.9a.47.47,0,0,0-.47-.48h-5l-.18.18-.35-.35.18-.18v-5a.47.47,0,0,0-.48-.47h-9.42a.48.48,0,0,0-.48.47v9.43a.49.49,0,0,0,.48.48h5.07Z" transform="translate(-354.74 -673.12)"/><rect class="cls-1" x="360.51" y="681.55" width="5.38" height="0.58" transform="translate(-730.49 -216.59) rotate(-45)"/><path class="cls-1" d="M368.25,687.79l-.69-1.89h-2.73l-.69,1.89h-.65l2.36-6h.76l2.36,6ZM365,685.38h2.34l-1.17-3.23Z" transform="translate(-354.74 -673.12)"/><path class="cls-1" d="M358,676.38c.32,0,.65,0,1,0,.07,0,.27,0,.31-.22s.12-.9.13-1,0-.13.1-.13l.43.16s.07,0,.07.09a.13.13,0,0,1-.07.1c-.15.11-.19.36-.22.67a.43.43,0,0,1,0,.05.12.12,0,0,0,.12.13l.13,0a9,9,0,0,0,1.08-.27.48.48,0,0,1,.17,0c.12,0,.16.27.16.33s0,.12-.23.17c-.4.1-.88.21-1.3.27a.26.26,0,0,0-.23.17s0,.35,0,.39a.12.12,0,0,0,.12.13h.07a3.6,3.6,0,0,1,.73-.06c1.14,0,2.19.58,2.19,1.84a2.27,2.27,0,0,1-1.36,2,4.31,4.31,0,0,1-1,.36c-.16,0-.24-.23-.24-.31s0-.07.08-.08a3.65,3.65,0,0,0,.64-.2,1.94,1.94,0,0,0,1.41-1.71,1.36,1.36,0,0,0-.79-1.3,1.33,1.33,0,0,0-.43-.13c-.13,0-.19.1-.24.2a5.83,5.83,0,0,1-1.08,1.67.23.23,0,0,0-.09.19,3.52,3.52,0,0,0,.07.41v.07c0,.11-.19.16-.28.16s-.13-.07-.15-.16,0-.13-.09-.13a.11.11,0,0,0-.08,0,2.58,2.58,0,0,1-1.37.63A.69.69,0,0,1,357,680a3.17,3.17,0,0,1,2-2.43.24.24,0,0,0,.17-.25s0-.4,0-.43a.13.13,0,0,0-.13-.14c-.06,0-.76.11-1.21.11-.19,0-.31,0-.31-.3,0-.15,0-.17.18-.17Zm-.59,3.61c0,.21.07.37.3.37a2.69,2.69,0,0,0,1.33-.68.3.3,0,0,0,.13-.26s0,0,0-.06c0-.3,0-.61,0-.92v-.34c0-.06,0-.11-.09-.11S357.36,679,357.36,680Zm2.24-2.23c-.12.08-.11.24-.11.63a5.33,5.33,0,0,0,0,.57s0,.1.05.1a4.23,4.23,0,0,0,.82-1.37c0-.05-.07-.05-.1-.05A2.16,2.16,0,0,0,359.6,677.76Z" transform="translate(-354.74 -673.12)"/></svg>