<svg id="レイヤー_1" data-name="レイヤー 1" xmlns="http://www.w3.org/2000/svg" viewBox="0 0 20 20"><defs><style>.cls-1{fill:#003634;}</style></defs><path class="cls-1" d="M364.79,691.71h-3l-.49-2.92a7.57,7.57,0,0,1-1.64-.68l-2.42,1.7-2.09-2.09,1.72-2.4a7.1,7.1,0,0,1-.68-1.64l-2.91-.52v-2.95l2.91-.48a7.18,7.18,0,0,1,.68-1.64l-1.69-2.43,2.09-2.08,2.41,1.72a7.08,7.08,0,0,1,1.63-.67l.48-2.92h3l.51,2.93a7,7,0,0,1,1.63.67l2.42-1.73,2.08,2.08-1.71,2.45a7.38,7.38,0,0,1,.67,1.62l2.94.48v2.95l-2.94.52a7.19,7.19,0,0,1-.67,1.62l1.74,2.42-2.08,2.09-2.44-1.71a7.29,7.29,0,0,1-1.63.68Zm-2.42-.63h1.89l.5-2.81.2,0a6.68,6.68,0,0,0,1.83-.76l.17-.11L369.3,689l1.34-1.34L369,685.33l.11-.17a6.66,6.66,0,0,0,.75-1.83l.05-.2,2.82-.5v-1.89l-2.82-.46-.05-.2a6.73,6.73,0,0,0-.75-1.82l-.11-.18,1.65-2.34-1.34-1.34L367,676.06l-.17-.1a6.72,6.72,0,0,0-1.84-.77l-.2-.05-.49-2.8h-1.89l-.46,2.8-.2,0a6.93,6.93,0,0,0-1.84.76l-.18.11-2.31-1.65-1.33,1.34,1.62,2.32-.11.17a6.94,6.94,0,0,0-.76,1.85l-.05.2-2.79.46v1.9l2.78.49.05.2a6.77,6.77,0,0,0,.77,1.84l.11.18-1.65,2.3,1.34,1.34,2.33-1.63.17.11a6.75,6.75,0,0,0,1.84.76l.2,0Zm1-5.83a3.55,3.55,0,1,1,3.54-3.54A3.55,3.55,0,0,1,363.33,685.25Zm0-6.46a2.92,2.92,0,1,0,2.92,2.92A2.92,2.92,0,0,0,363.33,678.79Z" transform="translate(-353.33 -671.71)"/></svg>