<svg id="レイヤー_1" data-name="レイヤー 1" xmlns="http://www.w3.org/2000/svg" viewBox="0 0 35 35">
  <defs>
    <style>.cls-1{fill:#cbcbcb;opacity:0.6;}.cls-2{fill:red;}</style>
  </defs>
  <rect class="cls-1" width="35" height="35" rx="5"/>
  <path class="cls-2" d="M380,685.24V674.11a.63.63,0,0,1,.63-.63h5.73a.64.64,0,0,1,.63.63v4.14l.65-.65v-3.49a1.29,1.29,0,0,0-1.28-1.28h-5.73a1.28,1.28,0,0,0-1.28,1.28v11.46a1.09,1.09,0,0,0,.05.26Z" transform="translate(-366.02 -665.66)"/>
  <path class="cls-2" d="M387.67,685.57v-5.14l-.65.65v4.49a.63.63,0,0,1-.63.63H381.9l-.65.65h5.14A1.29,1.29,0,0,0,387.67,685.57Z" transform="translate(-366.02 -665.66)"/>
  <path class="cls-2" d="M377.08,688.19a4.43,4.43,0,0,1-.87-2.62v-3.82h-.65v3.82a5.1,5.1,0,0,0,1.06,3.08Z" transform="translate(-366.02 -665.66)"/>
  <path class="cls-2" d="M390.83,685.57a4.45,4.45,0,0,1-4.44,4.45h-5.73a4.4,4.4,0,0,1-2.05-.53l-.48.48a5.05,5.05,0,0,0,2.53.7h2.54v3.16h-4.45v.65h9.55v-.65h-4.45v-3.16h2.54a5.1,5.1,0,0,0,5.09-5.1v-3.82h-.65Z" transform="translate(-366.02 -665.66)"/>
  <path class="cls-2" d="M369.65,697.28a.25.25,0,0,1-.18-.42l27.75-27.75a.25.25,0,0,1,.35.35l-27.75,27.75A.22.22,0,0,1,369.65,697.28Z" transform="translate(-366.02 -665.66)"/>
</svg>