<?xml version="1.0" encoding="utf-8"?>
<!-- Generator: Adobe Illustrator 25.4.1, SVG Export Plug-In . SVG Version: 6.00 Build 0)  -->
<svg version="1.1" id="レイヤー_1" xmlns="http://www.w3.org/2000/svg" xmlns:xlink="http://www.w3.org/1999/xlink" x="0px"
	 y="0px" viewBox="0 0 70 70" style="enable-background:new 0 0 70 70;" xml:space="preserve">
<style type="text/css">
	.st0{fill:#003333;}
	.st1{fill:#ffd900;}
</style>
<g>
	<path class="st0" d="M6,0h58c3.3,0,6,2.7,6,6v58c0,3.3-2.7,6-6,6H6c-3.3,0-6-2.7-6-6V6C0,2.7,2.7,0,6,0z"/>
	<g>
		<path class="st1" d="M47.2,59.4c-4.6-2-4.8-4.8-4.6-9.3c1.4-1.6,3.4-4,4.1-8.1c2.4,0.2,6.2-10.6,1.8-10.1
			c3.1-24.8-28.9-24.7-25.8,0c-4.4-0.5-0.6,10.4,1.8,10.1c0.7,4.1,2.7,6.5,4.1,8.1c2.4,13.2-13.5,6.6-17.4,18.2H60
			C58.1,61.4,50.3,60.6,47.2,59.4z"/>
	</g>
	<path class="st1" d="M19.1,53h-5.7c-0.3,0-0.5-0.2-0.5-0.5v-5.8c0-0.3,0.2-0.5,0.5-0.5s0.5,0.2,0.5,0.5V52h5.2
		c0.3,0,0.5,0.2,0.5,0.5S19.3,53,19.1,53z"/>
	<path class="st1" d="M57.3,53h-5.7c-0.3,0-0.5-0.2-0.5-0.5s0.2-0.5,0.5-0.5h5.2v-5.3c0-0.3,0.2-0.5,0.5-0.5s0.5,0.2,0.5,0.5v5.8
		C57.8,52.8,57.6,53,57.3,53z"/>
	<path class="st1" d="M57.3,14.7c-0.3,0-0.5-0.2-0.5-0.5V8.9h-5.2c-0.3,0-0.5-0.2-0.5-0.5s0.2-0.5,0.5-0.5h5.7
		c0.3,0,0.5,0.2,0.5,0.5v5.8C57.8,14.5,57.6,14.7,57.3,14.7z"/>
	<path class="st1" d="M13.4,14.7c-0.3,0-0.5-0.2-0.5-0.5V8.4c0-0.3,0.2-0.5,0.5-0.5h5.7c0.3,0,0.5,0.2,0.5,0.5s-0.2,0.5-0.5,0.5
		h-5.2v5.3C13.9,14.5,13.6,14.7,13.4,14.7z"/>
</g>
</svg>
