<?xml version="1.0" encoding="UTF-8"?>
<svg xmlns="http://www.w3.org/2000/svg" xmlns:xlink="http://www.w3.org/1999/xlink" width="256.0px" height="256.0px" viewBox="0 0 256.0 256.0" version="1.1">

<defs>
<!-- polycosvg ratio="1.000000" offsetx="0.000000" offsety="0.000000" / -->
</defs><g>
<path style="fill:rgb(59.21569%,0.0%,0.0%);fill-rule:evenodd;stroke:none;" name="Path No.0" d="M 198.5 183.0 C 204.45728 187.90475 210.20415 196.23952 216.4515 199.50299 C 220.18736 199.71112 223.12106 194.699 226.23274 192.26726 C 228.55328 190.06007 233.54381 185.50276 230.61856 182.69319 C 225.9191 176.56267 219.62753 171.79242 214.5249 166.0249 C 208.7521 160.30849 203.0769 154.50854 197.28821 148.82413 C 170.33319 122.34926 142.69244 93.6644 115.397736 66.897736 C 101.52138 53.021374 87.63377 39.13377 73.767265 25.267263 C 66.882095 18.383291 60.015198 11.513738 53.129616 4.630404 C 44.36028 -6.065782 38.65069 10.490448 31.0 13.0 C 31.360786 17.00844 36.19668 20.24338 39.10226 23.60226 C 42.40889 26.908892 45.70127 30.201271 49.0 33.5 C 47.20734 36.367317 45.02634 39.369926 42.876816 42.459515 C 42.60053 44.00355 40.779053 45.066128 40.312466 45.996628 C 39.55192 47.40807 38.672897 48.110195 37.73499 49.908817 C 22.937845 71.81519 19.29961 105.8874 25.282635 129.15907 C 27.537727 142.9057 35.453594 154.8882 42.372448 166.46664 C 46.509182 171.11122 49.977524 176.32135 54.909554 180.70874 C 59.282375 184.96994 65.04333 189.19923 69.72938 192.64557 C 74.28713 195.2713 78.22756 198.47787 83.501785 200.71234 C 102.685074 209.02171 127.34929 210.94461 145.9847 208.00424 C 156.07935 207.22409 167.51813 203.0824 175.79567 199.06186 C 180.02644 196.52478 183.74666 193.87663 187.95387 191.50984 C 191.70532 188.76854 195.15228 186.0022 198.5 183.0 Z M 182.0 243.0 C 179.66966 243.155 179.4095 239.5727 177.84279 239.33728 C 174.39458 237.24648 170.12971 237.66121 166.41371 236.4119 C 161.06638 234.45648 156.39612 231.51222 152.5842 227.61572 C 149.5169 224.06097 145.38411 220.86116 145.0 216.0 C 140.27257 215.31265 135.50746 216.13846 130.70421 216.0 C 122.26559 216.20985 111.71318 213.8194 108.36332 222.04005 C 105.48762 226.89958 100.26087 230.95935 95.714775 233.5594 C 89.65985 238.00786 76.36365 235.04117 74.350464 245.33273 C 74.20593 249.23329 74.81134 254.62497 79.662506 255.45647 C 84.46169 256.38757 89.41846 255.7866 94.25549 256.0 C 109.62376 256.0 124.94253 256.0 140.29485 256.0 C 152.35764 255.41626 164.58344 256.73224 176.60548 255.5545 C 182.37988 254.38266 181.90134 247.45839 182.0 243.0 Z M 172.0 83.0 C 172.67216 90.23079 176.80463 97.68453 175.99948 106.4425 C 176.46683 109.43814 175.32596 113.76261 177.04924 115.90912 C 183.1268 123.646706 191.07787 129.77133 197.60226 137.10226 C 201.1023 140.6023 204.60759 144.10759 208.10226 147.60226 C 211.55899 150.38052 215.31252 155.96889 219.0 157.0 C 237.4113 130.07602 236.96477 87.41763 224.50835 61.085087 C 222.7204 58.276363 221.68903 54.244877 219.5307 52.62498 C 218.79253 49.50702 217.1269 48.363876 215.62158 45.90455 C 215.35367 44.952564 213.66371 44.37938 213.37608 42.86115 C 210.57887 38.23887 206.72307 34.21253 203.16171 29.915005 C 199.8125 26.651825 195.99144 22.93941 192.37105 20.529535 C 163.32788 -2.3222482 119.840706 -6.395998 85.602356 7.4618697 C 82.181206 9.062597 72.84453 11.857538 78.11528 17.3831 C 85.022865 24.944502 92.67079 31.82655 99.732735 39.23274 C 105.43719 44.41151 110.343155 50.509735 116.30943 55.386734 C 118.38569 57.262688 122.23928 56.246597 125.41901 56.194042 C 135.12448 55.28787 146.08783 59.292034 153.51222 63.835243 C 157.55563 66.300964 160.89645 69.72824 164.13336 73.123924 C 167.96536 75.428925 169.05843 81.64702 172.0 83.0 Z M 157.0 141.5 C 153.89925 138.87683 150.3643 133.95155 147.0 133.0 C 146.20558 136.92644 139.60246 137.44627 136.78612 138.53572 C 121.2113 142.53104 107.37629 136.35 98.8992 124.584785 C 90.409065 112.16729 91.912285 95.907715 99.0 83.5 C 95.899254 80.87682 92.36431 75.951546 89.0 75.0 C 87.862335 77.94066 86.18772 82.10049 84.0 83.0 C 82.50035 92.814514 77.77408 102.51329 80.575775 112.7159 C 82.016846 119.55415 84.07957 125.85727 88.35851 131.11131 C 93.57224 139.50673 103.43978 145.8508 111.52548 149.3436 C 121.6468 153.9243 133.32426 153.7927 143.48988 149.62901 C 148.46207 147.81914 154.16328 145.3441 157.0 141.5 Z M 133.0 71.5 C 136.35297 77.39896 142.85591 81.14325 146.9751 86.4751 C 152.09344 90.33079 156.37122 97.96722 162.0 99.0 C 161.75365 84.3386 147.49051 70.14985 133.0 70.0 C 133.0 70.49934 133.0 71.00663 133.0 71.5 Z M 164.4564 44.5099 C 164.74222 48.26315 167.7674 52.566372 172.16261 51.39414 C 175.20372 50.80068 178.64511 47.22753 177.144 43.285168 C 176.235 40.0273 171.71 37.78622 168.39555 39.549347 C 165.76338 40.263706 165.33159 42.658134 164.4564 44.5099 Z " />

<path style="fill:rgb(58.823532%,0.0%,0.0%);fill-rule:evenodd;stroke:none;" name="Path No.1" d="M 23.0 104.4375 C 23.342558 104.847824 23.631227 104.73697 24.0 104.5 C 23.680395 104.296585 23.355738 104.06959 23.0 104.4375 Z M 23.5 110.0 C 23.747932 108.78227 24.658472 106.305565 23.0 106.0 C 22.927757 107.37675 23.103485 108.694756 23.5 110.0 Z M 24.5 91.0 C 24.794552 90.35721 24.984505 89.701836 25.0 89.0 C 24.116022 89.057526 23.935356 89.77294 24.166674 90.48133 C 24.277782 90.65422 24.388891 90.82711 24.5 91.0 Z M 25.5 86.0 C 25.794552 85.35721 25.984505 84.701836 26.0 84.0 C 25.116022 84.057526 24.935356 84.77294 25.166674 85.48133 C 25.277782 85.65422 25.388891 85.82711 25.5 86.0 Z M 26.0 80.4375 C 26.342558 80.847824 26.631227 80.73697 27.0 80.5 C 26.680395 80.296585 26.355738 80.06959 26.0 80.4375 Z M 27.5 76.0 C 27.794552 75.35721 27.984505 74.701836 28.0 74.0 C 27.116022 74.057526 26.935356 74.77294 27.166674 75.48133 C 27.277782 75.65422 27.388891 75.82711 27.5 76.0 Z M 29.0 70.4375 C 29.342558 70.847824 29.631227 70.73697 30.0 70.5 C 29.680395 70.296585 29.355738 70.06959 29.0 70.4375 Z M 29.0 139.4375 C 29.342558 139.84782 29.631227 139.73697 30.0 139.5 C 29.680395 139.29659 29.355738 139.06958 29.0 139.4375 Z M 30.0 66.4375 C 30.342558 66.847824 30.631227 66.73697 31.0 66.5 C 30.680395 66.296585 30.355738 66.06959 30.0 66.4375 Z M 31.5 146.0 C 31.794552 145.35721 31.984505 144.70184 32.0 144.0 C 31.116022 144.05753 30.935356 144.77295 31.166674 145.48134 C 31.277782 145.65422 31.388891 145.82712 31.5 146.0 Z M 33.5 150.0 C 33.79455 149.35721 33.984505 148.70184 34.0 148.0 C 33.11602 148.05753 32.935356 148.77295 33.16667 149.48134 C 33.27451 149.64912 33.40105 149.84604 33.5 150.0 Z M 36.0 17.4375 C 36.342556 17.84782 36.63123 17.73697 37.0 17.5 C 36.680393 17.296583 36.35574 17.069584 36.0 17.4375 Z M 36.0 53.25 C 36.260593 54.043602 37.3162 54.025814 38.0 54.0 C 37.969704 53.28618 37.814384 52.635513 37.5 52.0 C 37.05407 52.524906 36.402916 52.861473 36.0 53.25 Z M 37.0 156.25 C 37.578392 157.11726 38.26305 157.94725 38.5 159.0 C 39.162994 157.58772 38.30734 156.3767 37.0 156.0 C 37.0 156.09 37.0 156.17334 37.0 156.25 Z M 38.0 50.4375 C 38.342556 50.84782 38.63123 50.73697 39.0 50.5 C 38.680393 50.29658 38.35574 50.069584 38.0 50.4375 Z M 39.0 20.4375 C 39.342556 20.84782 39.63123 20.73697 40.0 20.5 C 39.680393 20.296583 39.35574 20.069584 39.0 20.4375 Z M 39.0 48.25 C 39.260593 49.043602 40.3162 49.025814 41.0 49.0 C 40.969704 48.28618 40.814384 47.635513 40.5 47.0 C 40.05407 47.524906 39.402916 47.861473 39.0 48.25 Z M 40.0 161.375 C 40.753216 162.6254 41.437107 163.97868 42.5 165.0 C 43.315094 163.73296 42.094257 162.48878 41.251194 161.80858 C 40.950222 161.44528 40.52349 161.1558 40.0 161.0 C 40.0 161.10632 40.0 161.24869 40.0 161.375 Z M 42.0 23.4375 C 42.342556 23.84782 42.63123 23.73697 43.0 23.5 C 42.680393 23.296583 42.35574 23.069584 42.0 23.4375 Z M 43.5 44.0 C 43.79455 43.35721 43.984505 42.70184 44.0 42.0 C 43.11602 42.057526 42.935356 42.77294 43.16667 43.481335 C 43.27451 43.64913 43.40105 43.84603 43.5 44.0 Z M 45.5 169.0 C 46.231827 167.928 45.3634 166.7459 44.538364 166.20775 C 44.34455 166.13297 44.165096 166.0637 44.0 166.0 C 43.879044 167.37827 44.588223 168.21027 45.5 169.0 Z M 45.0 26.4375 C 45.342556 26.84782 45.63123 26.73697 46.0 26.5 C 45.680393 26.296583 45.35574 26.069584 45.0 26.4375 Z M 46.5 40.0 C 46.79455 39.35721 46.984505 38.70184 47.0 38.0 C 46.11602 38.057526 45.935356 38.77294 46.16667 39.481335 C 46.277782 39.65422 46.38889 39.82711 46.5 40.0 Z M 48.0 29.4375 C 48.342556 29.84782 48.63123 29.73697 49.0 29.5 C 48.680393 29.296583 48.35574 29.069584 48.0 29.4375 Z M 49.0 4.4375 C 49.342556 4.8478203 49.63123 4.73697 50.0 4.5 C 49.680393 4.296583 49.35574 4.0695844 49.0 4.4375 Z M 51.5 34.0 C 51.79455 33.35721 51.984505 32.70184 52.0 32.0 C 51.11602 32.057526 50.935356 32.77294 51.16667 33.481335 C 51.277782 33.65422 51.38889 33.82711 51.5 34.0 Z M 51.0 175.45312 C 51.423233 176.06142 52.33644 176.89302 53.0 176.5 C 52.395596 175.9014 51.82352 175.24529 51.0 175.0 C 51.0 175.14659 51.0 175.31862 51.0 175.45312 Z M 52.0 7.4375 C 52.342556 7.8478203 52.63123 7.73697 53.0 7.5 C 52.680393 7.296583 52.35574 7.0695844 52.0 7.4375 Z M 54.0 35.4375 C 54.342556 35.84782 54.63123 35.73697 55.0 35.5 C 54.680393 35.29658 54.35574 35.069584 54.0 35.4375 Z M 54.0 178.45312 C 54.423233 179.06142 55.33644 179.89302 56.0 179.5 C 55.395596 178.9014 54.82352 178.24529 54.0 178.0 C 54.0 178.14659 54.0 178.31862 54.0 178.45312 Z M 55.0 10.4375 C 55.342556 10.84782 55.63123 10.73697 56.0 10.5 C 55.680393 10.296583 55.35574 10.069585 55.0 10.4375 Z M 57.0 38.4375 C 57.342556 38.84782 57.63123 38.73697 58.0 38.5 C 57.680393 38.29658 57.35574 38.069584 57.0 38.4375 Z M 58.0 13.4375 C 58.342556 13.84782 58.63123 13.73697 59.0 13.5 C 58.680393 13.296583 58.35574 13.069585 58.0 13.4375 Z M 59.0 183.375 C 59.37939 184.00488 60.04714 184.51013 60.5 185.0 C 60.860733 184.38042 61.009686 183.70644 61.0 183.0 C 60.327503 183.0 59.663654 183.0 59.0 183.0 C 59.0 183.10632 59.0 183.24869 59.0 183.375 Z M 60.0 41.4375 C 60.342556 41.84782 60.63123 41.73697 61.0 41.5 C 60.680393 41.29658 60.35574 41.069584 60.0 41.4375 Z M 61.0 16.4375 C 61.342556 16.84782 61.63123 16.73697 62.0 16.5 C 61.680393 16.296583 61.35574 16.069584 61.0 16.4375 Z M 63.0 44.4375 C 63.342556 44.84782 63.63123 44.73697 64.0 44.5 C 63.680393 44.29658 63.35574 44.069584 63.0 44.4375 Z M 63.0 186.4375 C 63.342556 186.84782 63.63123 186.73697 64.0 186.5 C 63.680393 186.29659 63.35574 186.06958 63.0 186.4375 Z M 64.0 19.4375 C 64.34256 19.84782 64.631226 19.73697 65.0 19.5 C 64.6804 19.296583 64.355736 19.069584 64.0 19.4375 Z M 66.0 47.4375 C 66.34256 47.84782 66.631226 47.73697 67.0 47.5 C 66.6804 47.29658 66.355736 47.069584 66.0 47.4375 Z M 67.0 22.4375 C 67.34256 22.84782 67.631226 22.73697 68.0 22.5 C 67.6804 22.296583 67.355736 22.069584 67.0 22.4375 Z M 67.0 189.4375 C 67.34256 189.84782 67.631226 189.73697 68.0 189.5 C 67.6804 189.29659 67.355736 189.06958 67.0 189.4375 Z M 69.0 50.4375 C 69.34256 50.84782 69.631226 50.73697 70.0 50.5 C 69.6804 50.29658 69.355736 50.069584 69.0 50.4375 Z M 70.0 25.4375 C 70.34256 25.84782 70.631226 25.73697 71.0 25.5 C 70.6804 25.296583 70.355736 25.069584 70.0 25.4375 Z M 71.0 192.4375 C 71.34256 192.84782 71.631226 192.73697 72.0 192.5 C 71.6804 192.29659 71.355736 192.06958 71.0 192.4375 Z M 72.0 53.4375 C 72.34256 53.84782 72.631226 53.73697 73.0 53.5 C 72.6804 53.29658 72.355736 53.069584 72.0 53.4375 Z M 73.0 28.4375 C 73.34256 28.84782 73.631226 28.73697 74.0 28.5 C 73.6804 28.296583 73.355736 28.069584 73.0 28.4375 Z M 73.0 193.375 C 73.379395 194.00488 74.047134 194.51013 74.5 195.0 C 74.86073 194.38042 75.00968 193.70644 75.0 193.0 C 74.3275 193.0 73.66365 193.0 73.0 193.0 C 73.0 193.10632 73.0 193.24869 73.0 193.375 Z M 75.0 56.4375 C 75.34256 56.84782 75.631226 56.73697 76.0 56.5 C 75.6804 56.29658 75.355736 56.069584 75.0 56.4375 Z M 75.0 245.4375 C 75.34256 245.84782 75.631226 245.73697 76.0 245.5 C 75.6804 245.29659 75.355736 245.06958 75.0 245.4375 Z M 75.5 252.0 C 75.74793 250.78227 76.65847 248.30556 75.0 248.0 C 74.92776 249.37675 75.103485 250.69476 75.5 252.0 Z M 76.0 31.4375 C 76.34256 31.84782 76.631226 31.73697 77.0 31.5 C 76.6804 31.296583 76.355736 31.069584 76.0 31.4375 Z M 76.0 195.4375 C 76.34256 195.84782 76.631226 195.73697 77.0 195.5 C 76.6804 195.29659 76.355736 195.06958 76.0 195.4375 Z M 78.0 59.4375 C 78.34256 59.84782 78.631226 59.73697 79.0 59.5 C 78.6804 59.29658 78.355736 59.069584 78.0 59.4375 Z M 79.0 34.4375 C 79.34256 34.84782 79.631226 34.73697 80.0 34.5 C 79.6804 34.29658 79.355736 34.069584 79.0 34.4375 Z M 79.5 99.0 C 79.794556 98.35721 79.984505 97.701836 80.0 97.0 C 79.11602 97.057526 78.935356 97.77294 79.16667 98.48133 C 79.27778 98.65422 79.38889 98.82711 79.5 99.0 Z M 79.5 114.0 C 79.794556 113.35721 79.984505 112.701836 80.0 112.0 C 79.11602 112.057526 78.935356 112.77294 79.16667 113.48133 C 79.27778 113.65422 79.38889 113.82711 79.5 114.0 Z M 79.0 255.3125 C 79.334 256.0217 80.45081 255.65904 81.0 255.5 C 80.32876 255.29822 79.69053 255.09445 79.0 255.0 C 79.0 255.10417 79.0 255.20833 79.0 255.3125 Z M 80.0 91.4375 C 80.34256 91.847824 80.631226 91.73697 81.0 91.5 C 80.6804 91.296585 80.355736 91.06959 80.0 91.4375 Z M 81.0 62.4375 C 81.34256 62.84782 81.631226 62.73697 82.0 62.5 C 81.6804 62.29658 81.355736 62.069584 81.0 62.4375 Z M 81.5 121.0 C 81.794556 120.35721 81.984505 119.701836 82.0 119.0 C 81.11602 119.057526 80.935356 119.77294 81.16667 120.48133 C 81.27778 120.65422 81.38889 120.82711 81.5 121.0 Z M 82.0 37.4375 C 82.34256 37.84782 82.631226 37.73697 83.0 37.5 C 82.6804 37.29658 82.355736 37.069584 82.0 37.4375 Z M 84.5 129.0 C 84.87165 126.87113 83.60786 122.90472 82.0 122.0 C 82.30831 124.269684 83.990364 126.36411 84.5 129.0 Z M 82.0 255.4375 C 82.34256 255.84782 82.631226 255.73697 83.0 255.5 C 82.6804 255.29659 82.355736 255.06958 82.0 255.4375 Z M 83.5 85.0 C 83.86057 84.082306 84.30543 83.21178 85.0 82.5 C 84.46697 82.12863 83.76703 81.96114 83.0 82.0 C 82.94359 83.04036 83.07011 84.04908 83.5 85.0 Z M 84.0 65.4375 C 84.34256 65.847824 84.631226 65.73697 85.0 65.5 C 84.6804 65.296585 84.355736 65.06959 84.0 65.4375 Z M 84.0 238.4375 C 84.34256 238.84782 84.631226 238.73697 85.0 238.5 C 84.6804 238.29659 84.355736 238.06958 84.0 238.4375 Z M 85.0 40.4375 C 85.34256 40.84782 85.631226 40.73697 86.0 40.5 C 85.6804 40.29658 85.355736 40.069584 85.0 40.4375 Z M 87.0 68.4375 C 87.34256 68.847824 87.631226 68.73697 88.0 68.5 C 87.6804 68.296585 87.355736 68.06959 87.0 68.4375 Z M 88.0 43.4375 C 88.34256 43.84782 88.631226 43.73697 89.0 43.5 C 88.6804 43.29658 88.355736 43.069584 88.0 43.4375 Z M 90.5 73.0 C 90.794556 72.35721 90.984505 71.701836 91.0 71.0 C 90.11602 71.057526 89.935356 71.77294 90.16667 72.48133 C 90.27778 72.65422 90.38889 72.82711 90.5 73.0 Z M 91.0 6.4375 C 91.34256 6.8478203 91.631226 6.73697 92.0 6.5 C 91.6804 6.296583 91.355736 6.0695844 91.0 6.4375 Z M 91.0 46.4375 C 91.34256 46.84782 91.631226 46.73697 92.0 46.5 C 91.6804 46.29658 91.355736 46.069584 91.0 46.4375 Z M 91.0 202.4375 C 91.34256 202.84782 91.631226 202.73697 92.0 202.5 C 91.6804 202.29659 91.355736 202.06958 91.0 202.4375 Z M 93.0 5.3125 C 93.334 6.0217023 94.45081 5.659037 95.0 5.5 C 94.32876 5.2982216 93.69053 5.094454 93.0 5.0 C 93.0 5.1041665 93.0 5.2083335 93.0 5.3125 Z M 93.0 74.4375 C 93.34256 74.847824 93.631226 74.73697 94.0 74.5 C 93.6804 74.296585 93.355736 74.06959 93.0 74.4375 Z M 93.0 139.45312 C 93.42323 140.06142 94.33644 140.89302 95.0 140.5 C 94.39559 139.9014 93.823524 139.24529 93.0 139.0 C 93.0 139.14659 93.0 139.31862 93.0 139.45312 Z M 93.0 203.3125 C 93.334 204.0217 94.45081 203.65904 95.0 203.5 C 94.32876 203.29822 93.69053 203.09445 93.0 203.0 C 93.0 203.10417 93.0 203.20833 93.0 203.3125 Z M 94.0 49.4375 C 94.34256 49.84782 94.631226 49.73697 95.0 49.5 C 94.6804 49.29658 94.355736 49.069584 94.0 49.4375 Z M 94.5 99.0 C 94.92085 97.994545 95.37029 96.19173 94.0 96.0 C 93.97669 97.032646 94.1476 98.04461 94.5 99.0 Z M 94.5 113.0 C 94.92085 111.994545 95.37029 110.19173 94.0 110.0 C 93.97669 111.032646 94.1476 112.04461 94.5 113.0 Z M 95.5 94.0 C 95.794556 93.35721 95.984505 92.701836 96.0 92.0 C 95.11602 92.057526 94.935356 92.77294 95.16667 93.48133 C 95.27778 93.65422 95.38889 93.82711 95.5 94.0 Z M 96.0 4.3125 C 96.334 5.0217023 97.45081 4.659037 98.0 4.5 C 97.32876 4.2982216 96.69053 4.094454 96.0 4.0 C 96.0 4.1041665 96.0 4.2083335 96.0 4.3125 Z M 96.0 77.4375 C 96.34256 77.847824 96.631226 77.73697 97.0 77.5 C 96.6804 77.296585 96.355736 77.06959 96.0 77.4375 Z M 96.5 119.0 C 96.794556 118.35721 96.984505 117.701836 97.0 117.0 C 96.11602 117.057526 95.935356 117.77294 96.16667 118.48133 C 96.27778 118.65422 96.38889 118.82711 96.5 119.0 Z M 96.0 204.3125 C 96.42428 205.23192 97.97082 204.71625 98.687325 204.68106 C 99.125725 204.62059 99.56953 204.55937 100.0 204.5 C 98.65103 204.33122 97.340866 204.0987 96.0 204.0 C 96.0 204.10417 96.0 204.20833 96.0 204.3125 Z M 97.0 52.4375 C 97.34256 52.84782 97.631226 52.73697 98.0 52.5 C 97.6804 52.29658 97.355736 52.069584 97.0 52.4375 Z M 97.5 90.0 C 98.21803 88.83233 98.945206 87.38292 98.5 86.0 C 98.229355 86.86081 97.82343 87.85645 97.0 88.0 C 97.022354 88.702545 97.105705 89.40106 97.5 90.0 Z M 99.0 80.4375 C 99.34256 80.847824 99.631226 80.73697 100.0 80.5 C 99.6804 80.296585 99.355736 80.06959 99.0 80.4375 Z M 99.0 232.25 C 99.69853 233.14864 100.78821 232.4734 101.510414 231.94148 C 102.378876 231.169 103.16429 230.30386 104.0 229.5 C 102.25904 229.60252 101.14269 231.95082 99.0 232.25 Z M 100.0 55.4375 C 100.34256 55.84782 100.631226 55.73697 101.0 55.5 C 100.6804 55.29658 100.355736 55.069584 100.0 55.4375 Z M 101.0 82.453125 C 101.42323 83.06141 102.33644 83.89301 103.0 83.5 C 102.39559 82.9014 101.823524 82.24528 101.0 82.0 C 101.0 82.14659 101.0 82.31861 101.0 82.453125 Z M 102.0 146.25 C 102.898094 147.25813 104.53652 147.62611 105.5 149.0 C 105.860214 147.92274 104.306625 146.93134 103.623055 146.44391 C 103.1281 146.15114 102.57418 145.99533 102.0 146.0 C 102.0 146.09 102.0 146.17334 102.0 146.25 Z M 103.0 58.4375 C 103.34256 58.84782 103.631226 58.73697 104.0 58.5 C 103.6804 58.29658 103.355736 58.069584 103.0 58.4375 Z M 103.0 128.4375 C 103.34256 128.84782 103.631226 128.73697 104.0 128.5 C 103.6804 128.29659 103.355736 128.06958 103.0 128.4375 Z M 105.0 86.4375 C 105.34256 86.847824 105.631226 86.73697 106.0 86.5 C 105.6804 86.296585 105.355736 86.06959 105.0 86.4375 Z M 106.0 61.4375 C 106.34256 61.84782 106.631226 61.73697 107.0 61.5 C 106.6804 61.29658 106.355736 61.069584 106.0 61.4375 Z M 106.0 130.5 C 107.10952 131.73062 108.38352 132.7825 109.5 134.0 C 109.86533 133.3712 110.00713 132.72054 110.0 132.0 C 108.192 132.03836 107.37674 130.648 106.0 130.0 C 106.0 130.18 106.0 130.34666 106.0 130.5 Z M 106.0 226.45703 C 106.46094 226.93874 107.1918 226.25137 107.5411 225.95891 C 108.08286 225.46675 108.70555 224.6032 108.5 224.0 C 107.77922 224.84178 106.534874 225.72314 106.0 226.45703 Z M 108.0 1.3125 C 108.42428 2.231912 109.97082 1.7162542 110.687325 1.6810589 C 111.125725 1.62059 111.56953 1.5593753 112.0 1.5 C 110.65103 1.3312191 109.340866 1.0986987 108.0 1.0 C 108.0 1.1041666 108.0 1.2083334 108.0 1.3125 Z M 108.0 89.4375 C 108.34256 89.847824 108.631226 89.73697 109.0 89.5 C 108.6804 89.296585 108.355736 89.06959 108.0 89.4375 Z M 108.0 149.3125 C 108.334 150.0217 109.45081 149.65904 110.0 149.5 C 109.32876 149.29822 108.69053 149.09445 108.0 149.0 C 108.0 149.10417 108.0 149.20833 108.0 149.3125 Z M 109.0 64.4375 C 109.34256 64.847824 109.631226 64.73697 110.0 64.5 C 109.6804 64.296585 109.355736 64.06959 109.0 64.4375 Z M 111.0 92.4375 C 111.34256 92.847824 111.631226 92.73697 112.0 92.5 C 111.6804 92.296585 111.355736 92.06959 111.0 92.4375 Z M 112.0 67.4375 C 112.34256 67.847824 112.631226 67.73697 113.0 67.5 C 112.6804 67.296585 112.355736 67.06959 112.0 67.4375 Z M 116.0 216.5 C 114.67364 216.25073 113.350876 215.99368 112.0 216.0 C 111.903755 216.91476 112.36391 217.86787 113.474464 217.14719 C 114.27779 216.77962 115.14276 216.62671 116.0 216.5 Z M 113.0 151.3125 C 113.334 152.0217 114.45081 151.65904 115.0 151.5 C 114.32876 151.29822 113.69053 151.09445 113.0 151.0 C 113.0 151.10417 113.0 151.20833 113.0 151.3125 Z M 114.0 0.3125 C 114.33842 1.058831 115.50521 0.7979178 116.060234 0.6790026 C 116.36975 0.6200468 116.69963 0.5572128 117.0 0.5 C 116.00301 0.3287231 115.00953 0.08572443 114.0 0.0 C 114.0 0.104166664 114.0 0.20833333 114.0 0.3125 Z M 114.0 95.4375 C 114.34256 95.847824 114.631226 95.73697 115.0 95.5 C 114.6804 95.296585 114.355736 95.06959 114.0 95.4375 Z M 115.0 70.4375 C 115.34256 70.847824 115.631226 70.73697 116.0 70.5 C 115.6804 70.296585 115.355736 70.06959 115.0 70.4375 Z M 115.0 136.4375 C 115.34256 136.84782 115.631226 136.73697 116.0 136.5 C 115.6804 136.29659 115.355736 136.06958 115.0 136.4375 Z M 117.0 98.4375 C 117.34256 98.847824 117.631226 98.73697 118.0 98.5 C 117.6804 98.296585 117.355736 98.06959 117.0 98.4375 Z M 117.0 208.3125 C 117.33842 209.05884 118.50521 208.79791 119.060234 208.679 C 119.36975 208.62004 119.69963 208.5572 120.0 208.5 C 119.00301 208.32872 118.00953 208.08572 117.0 208.0 C 117.0 208.10417 117.0 208.20833 117.0 208.3125 Z M 118.0 73.4375 C 118.34256 73.847824 118.631226 73.73697 119.0 73.5 C 118.6804 73.296585 118.355736 73.06959 118.0 73.4375 Z M 118.0 137.3125 C 118.334 138.0217 119.45081 137.65904 120.0 137.5 C 119.32876 137.29822 118.69053 137.09445 118.0 137.0 C 118.0 137.10417 118.0 137.20833 118.0 137.3125 Z M 120.0 101.4375 C 120.34256 101.847824 120.631226 101.73697 121.0 101.5 C 120.6804 101.296585 120.355736 101.06959 120.0 101.4375 Z M 121.0 0.4375 C 121.34256 0.8478203 121.631226 0.73697 122.0 0.5 C 121.6804 0.29658297 121.355736 0.069584474 121.0 0.4375 Z M 121.0 55.3125 C 121.33842 56.05883 122.50521 55.797916 123.060234 55.679 C 123.36975 55.62005 123.69963 55.557213 124.0 55.5 C 123.00301 55.328724 122.00953 55.085724 121.0 55.0 C 121.0 55.104168 121.0 55.208332 121.0 55.3125 Z M 121.0 76.4375 C 121.34256 76.847824 121.631226 76.73697 122.0 76.5 C 121.6804 76.296585 121.355736 76.06959 121.0 76.4375 Z M 121.0 153.4375 C 121.34256 153.84782 121.631226 153.73697 122.0 153.5 C 121.6804 153.29659 121.355736 153.06958 121.0 153.4375 Z M 123.0 0.4375 C 123.34256 0.8478203 123.631226 0.73697 124.0 0.5 C 123.6804 0.29658297 123.355736 0.069584474 123.0 0.4375 Z M 123.0 104.4375 C 123.34256 104.847824 123.631226 104.73697 124.0 104.5 C 123.6804 104.296585 123.355736 104.06959 123.0 104.4375 Z M 123.0 217.4375 C 123.34256 217.84782 123.631226 217.73697 124.0 217.5 C 123.6804 217.29659 123.355736 217.06958 123.0 217.4375 Z M 124.0 79.4375 C 124.34256 79.847824 124.631226 79.73697 125.0 79.5 C 124.6804 79.296585 124.355736 79.06959 124.0 79.4375 Z M 124.0 153.3125 C 125.91859 154.71722 129.88239 153.05779 132.0 153.5 C 129.31766 153.34659 126.68391 153.12073 124.0 153.0 C 124.0 153.10417 124.0 153.20833 124.0 153.3125 Z M 126.0 107.4375 C 126.34256 107.847824 126.631226 107.73697 127.0 107.5 C 126.6804 107.296585 126.355736 107.06959 126.0 107.4375 Z M 127.0 82.4375 C 127.34256 82.847824 127.631226 82.73697 128.0 82.5 C 127.6804 82.296585 127.355736 82.06959 127.0 82.4375 Z M 127.0 138.3125 C 127.334 139.0217 128.4508 138.65904 129.0 138.5 C 128.32877 138.29822 127.69053 138.09445 127.0 138.0 C 127.0 138.10417 127.0 138.20833 127.0 138.3125 Z M 129.0 110.4375 C 129.34256 110.847824 129.63123 110.73697 130.0 110.5 C 129.68039 110.296585 129.35574 110.06959 129.0 110.4375 Z M 130.0 85.4375 C 130.34256 85.847824 130.63123 85.73697 131.0 85.5 C 130.68039 85.296585 130.35574 85.06959 130.0 85.4375 Z M 132.0 0.4375 C 132.34256 0.8478203 132.63123 0.73697 133.0 0.5 C 132.68039 0.29658297 132.35574 0.069584474 132.0 0.4375 Z M 132.0 55.3125 C 132.33842 56.05883 133.50522 55.797916 134.06024 55.679 C 134.36975 55.62005 134.69963 55.557213 135.0 55.5 C 134.003 55.328724 133.00952 55.085724 132.0 55.0 C 132.0 55.104168 132.0 55.208332 132.0 55.3125 Z M 132.0 113.4375 C 132.34256 113.847824 132.63123 113.73697 133.0 113.5 C 132.68039 113.296585 132.35574 113.06959 132.0 113.4375 Z M 132.0 217.4375 C 132.34256 217.84782 132.63123 217.73697 133.0 217.5 C 132.68039 217.29659 132.35574 217.06958 132.0 217.4375 Z M 133.0 88.4375 C 133.34256 88.847824 133.63123 88.73697 134.0 88.5 C 133.68039 88.296585 133.35574 88.06959 133.0 88.4375 Z M 134.0 0.4375 C 134.34256 0.8478203 134.63123 0.73697 135.0 0.5 C 134.68039 0.29658297 134.35574 0.069584474 134.0 0.4375 Z M 134.0 153.4375 C 134.34256 153.84782 134.63123 153.73697 135.0 153.5 C 134.68039 153.29659 134.35574 153.06958 134.0 153.4375 Z M 135.0 116.4375 C 135.34256 116.847824 135.63123 116.73697 136.0 116.5 C 135.68039 116.296585 135.35574 116.06959 135.0 116.4375 Z M 136.0 91.4375 C 136.34256 91.847824 136.63123 91.73697 137.0 91.5 C 136.68039 91.296585 136.35574 91.06959 136.0 91.4375 Z M 136.0 137.3125 C 136.334 138.0217 137.4508 137.65904 138.0 137.5 C 137.32877 137.29822 136.69052 137.09445 136.0 137.0 C 136.0 137.10417 136.0 137.20833 136.0 137.3125 Z M 136.0 208.3125 C 136.33842 209.05884 137.50522 208.79791 138.06024 208.679 C 138.36975 208.62004 138.69963 208.5572 139.0 208.5 C 138.003 208.32872 137.00952 208.08572 136.0 208.0 C 136.0 208.10417 136.0 208.20833 136.0 208.3125 Z M 137.0 152.3125 C 137.334 153.0217 138.4508 152.65904 139.0 152.5 C 138.32877 152.29822 137.69052 152.09445 137.0 152.0 C 137.0 152.10417 137.0 152.20833 137.0 152.3125 Z M 138.0 56.3125 C 138.334 57.0217 139.4508 56.65904 140.0 56.5 C 139.32877 56.29822 138.69052 56.09445 138.0 56.0 C 138.0 56.104168 138.0 56.208332 138.0 56.3125 Z M 138.0 119.4375 C 138.34256 119.847824 138.63123 119.73697 139.0 119.5 C 138.68039 119.296585 138.35574 119.06959 138.0 119.4375 Z M 139.0 0.3125 C 139.33842 1.058831 140.50522 0.7979178 141.06024 0.6790026 C 141.36975 0.6200468 141.69963 0.5572128 142.0 0.5 C 141.003 0.3287231 140.00952 0.08572443 139.0 0.0 C 139.0 0.104166664 139.0 0.20833333 139.0 0.3125 Z M 139.0 72.4375 C 139.34256 72.847824 139.63123 72.73697 140.0 72.5 C 139.68039 72.296585 139.35574 72.06959 139.0 72.4375 Z M 139.0 94.4375 C 139.34256 94.847824 139.63123 94.73697 140.0 94.5 C 139.68039 94.296585 139.35574 94.06959 139.0 94.4375 Z M 140.0 136.4375 C 140.34256 136.84782 140.63123 136.73697 141.0 136.5 C 140.68039 136.29659 140.35574 136.06958 140.0 136.4375 Z M 141.0 122.4375 C 141.34256 122.847824 141.63123 122.73697 142.0 122.5 C 141.68039 122.296585 141.35574 122.06959 141.0 122.4375 Z M 142.0 97.4375 C 142.34256 97.847824 142.63123 97.73697 143.0 97.5 C 142.68039 97.296585 142.35574 97.06959 142.0 97.4375 Z M 144.0 1.3125 C 144.42429 2.231912 145.97083 1.7162542 146.68732 1.6810589 C 147.12572 1.62059 147.56953 1.5593753 148.0 1.5 C 146.65103 1.3312191 145.34087 1.0986987 144.0 1.0 C 144.0 1.1041666 144.0 1.2083334 144.0 1.3125 Z M 147.0 58.5 C 145.91504 58.318096 144.79042 57.34249 144.0 57.0 C 143.76543 58.61726 144.84377 59.18144 146.14479 58.75753 C 146.42722 58.691566 146.75423 58.590466 147.0 58.5 Z M 144.0 74.453125 C 144.42323 75.06141 145.33644 75.89301 146.0 75.5 C 145.3956 74.9014 144.82352 74.24528 144.0 74.0 C 144.0 74.14659 144.0 74.31861 144.0 74.453125 Z M 144.0 125.4375 C 144.34256 125.847824 144.63123 125.73697 145.0 125.5 C 144.68039 125.296585 144.35574 125.06959 144.0 125.4375 Z M 144.5 220.0 C 144.79456 219.35721 144.98451 218.70184 145.0 218.0 C 144.11603 218.05753 143.93536 218.77295 144.16667 219.48134 C 144.27779 219.65422 144.38889 219.82712 144.5 220.0 Z M 145.0 100.4375 C 145.34256 100.847824 145.63123 100.73697 146.0 100.5 C 145.68039 100.296585 145.35574 100.06959 145.0 100.4375 Z M 146.0 149.3125 C 146.334 150.0217 147.4508 149.65904 148.0 149.5 C 147.32877 149.29822 146.69052 149.09445 146.0 149.0 C 146.0 149.10417 146.0 149.20833 146.0 149.3125 Z M 147.0 128.4375 C 147.34256 128.84782 147.63123 128.73697 148.0 128.5 C 147.68039 128.29659 147.35574 128.06958 147.0 128.4375 Z M 147.0 224.4375 C 147.34256 224.84782 147.63123 224.73697 148.0 224.5 C 147.68039 224.29659 147.35574 224.06958 147.0 224.4375 Z M 148.0 103.4375 C 148.34256 103.847824 148.63123 103.73697 149.0 103.5 C 148.68039 103.296585 148.35574 103.06959 148.0 103.4375 Z M 148.0 131.45312 C 148.44318 131.88142 149.04541 131.38422 149.42029 131.07971 C 149.61748 130.88252 149.81071 130.68929 150.0 130.5 C 149.27635 130.09549 148.29346 130.90637 148.0 131.45312 Z M 149.0 60.3125 C 149.334 61.0217 150.4508 60.65904 151.0 60.5 C 150.32877 60.29822 149.69052 60.09445 149.0 60.0 C 149.0 60.104168 149.0 60.208332 149.0 60.3125 Z M 149.0 226.4375 C 149.34256 226.84782 149.63123 226.73697 150.0 226.5 C 149.68039 226.29659 149.35574 226.06958 149.0 226.4375 Z M 150.0 131.4375 C 150.34256 131.84782 150.63123 131.73697 151.0 131.5 C 150.68039 131.29659 150.35574 131.06958 150.0 131.4375 Z M 150.0 148.45703 C 150.83206 148.7793 151.74457 147.59567 152.53242 147.13858 C 153.02597 146.91277 153.48068 146.64467 154.0 146.5 C 152.50177 145.91988 150.8271 147.30481 150.0 148.45703 Z M 150.0 206.3125 C 150.334 207.0217 151.4508 206.65904 152.0 206.5 C 151.32877 206.29822 150.69052 206.09445 150.0 206.0 C 150.0 206.10417 150.0 206.20833 150.0 206.3125 Z M 151.0 106.4375 C 151.34256 106.847824 151.63123 106.73697 152.0 106.5 C 151.68039 106.296585 151.35574 106.06959 151.0 106.4375 Z M 152.0 80.453125 C 152.42323 81.06141 153.33644 81.89301 154.0 81.5 C 153.3956 80.9014 152.82352 80.24528 152.0 80.0 C 152.0 80.14659 152.0 80.31861 152.0 80.453125 Z M 153.0 62.453125 C 153.6142 63.450466 154.66127 64.20707 156.0 63.5 C 154.91187 63.237766 153.905 62.403774 153.0 62.0 C 153.0 62.146595 153.0 62.318615 153.0 62.453125 Z M 153.0 134.4375 C 153.34256 134.84782 153.63123 134.73697 154.0 134.5 C 153.68039 134.29659 153.35574 134.06958 153.0 134.4375 Z M 154.0 109.4375 C 154.34256 109.847824 154.63123 109.73697 155.0 109.5 C 154.68039 109.296585 154.35574 109.06959 154.0 109.4375 Z M 154.0 205.3125 C 154.334 206.0217 155.4508 205.65904 156.0 205.5 C 155.32877 205.29822 154.69052 205.09445 154.0 205.0 C 154.0 205.10417 154.0 205.20833 154.0 205.3125 Z M 155.0 232.3125 C 155.334 233.0217 156.4508 232.65904 157.0 232.5 C 156.32877 232.29822 155.69052 232.09445 155.0 232.0 C 155.0 232.10417 155.0 232.20833 155.0 232.3125 Z M 156.0 4.3125 C 156.334 5.0217023 157.4508 4.659037 158.0 4.5 C 157.32877 4.2982216 156.69052 4.094454 156.0 4.0 C 156.0 4.1041665 156.0 4.2083335 156.0 4.3125 Z M 156.0 85.4375 C 156.34256 85.847824 156.63123 85.73697 157.0 85.5 C 156.68039 85.296585 156.35574 85.06959 156.0 85.4375 Z M 156.0 137.4375 C 156.34256 137.84782 156.63123 137.73697 157.0 137.5 C 156.68039 137.29659 156.35574 137.06958 156.0 137.4375 Z M 157.0 112.4375 C 157.34256 112.847824 157.63123 112.73697 158.0 112.5 C 157.68039 112.296585 157.35574 112.06959 157.0 112.4375 Z M 158.0 66.3125 C 158.334 67.021706 159.4508 66.659035 160.0 66.5 C 159.32877 66.298225 158.69052 66.09445 158.0 66.0 C 158.0 66.104164 158.0 66.208336 158.0 66.3125 Z M 159.0 140.4375 C 159.34256 140.84782 159.63123 140.73697 160.0 140.5 C 159.68039 140.29659 159.35574 140.06958 159.0 140.4375 Z M 160.0 115.4375 C 160.34256 115.847824 160.63123 115.73697 161.0 115.5 C 160.68039 115.296585 160.35574 115.06959 160.0 115.4375 Z M 161.0 5.3125 C 161.334 6.0217023 162.4508 5.659037 163.0 5.5 C 162.32877 5.2982216 161.69052 5.094454 161.0 5.0 C 161.0 5.1041665 161.0 5.2083335 161.0 5.3125 Z M 161.0 203.3125 C 161.334 204.0217 162.4508 203.65904 163.0 203.5 C 162.32877 203.29822 161.69052 203.09445 161.0 203.0 C 161.0 203.10417 161.0 203.20833 161.0 203.3125 Z M 162.0 143.4375 C 162.34256 143.84782 162.63123 143.73697 163.0 143.5 C 162.68039 143.29659 162.35574 143.06958 162.0 143.4375 Z M 163.0 48.4375 C 163.34256 48.84782 163.63123 48.73697 164.0 48.5 C 163.68039 48.29658 163.35574 48.069584 163.0 48.4375 Z M 163.0 118.4375 C 163.34256 118.847824 163.63123 118.73697 164.0 118.5 C 163.68039 118.296585 163.35574 118.06959 163.0 118.4375 Z M 164.0 6.4375 C 164.34256 6.8478203 164.63123 6.73697 165.0 6.5 C 164.68039 6.296583 164.35574 6.0695844 164.0 6.4375 Z M 164.0 40.4375 C 164.34256 40.84782 164.63123 40.73697 165.0 40.5 C 164.68039 40.29658 164.35574 40.069584 164.0 40.4375 Z M 164.0 71.4375 C 164.34256 71.847824 164.63123 71.73697 165.0 71.5 C 164.68039 71.296585 164.35574 71.06959 164.0 71.4375 Z M 164.0 202.4375 C 164.34256 202.84782 164.63123 202.73697 165.0 202.5 C 164.68039 202.29659 164.35574 202.06958 164.0 202.4375 Z M 165.0 146.4375 C 165.34256 146.84782 165.63123 146.73697 166.0 146.5 C 165.68039 146.29659 165.35574 146.06958 165.0 146.4375 Z M 166.0 121.4375 C 166.34256 121.847824 166.63123 121.73697 167.0 121.5 C 166.68039 121.296585 166.35574 121.06959 166.0 121.4375 Z M 168.0 149.4375 C 168.34256 149.84782 168.63123 149.73697 169.0 149.5 C 168.68039 149.29659 168.35574 149.06958 168.0 149.4375 Z M 169.0 124.4375 C 169.34256 124.847824 169.63123 124.73697 170.0 124.5 C 169.68039 124.296585 169.35574 124.06959 169.0 124.4375 Z M 171.0 82.25 C 171.50615 83.06955 172.30171 83.82646 172.5 85.0 C 172.79144 84.00695 173.02028 83.02935 173.0 82.0 C 172.33525 82.0 171.65816 82.0 171.0 82.0 C 171.0 82.09 171.0 82.17333 171.0 82.25 Z M 171.0 152.4375 C 171.34256 152.84782 171.63123 152.73697 172.0 152.5 C 171.68039 152.29659 171.35574 152.06958 171.0 152.4375 Z M 171.0 238.3125 C 171.334 239.0217 172.4508 238.65904 173.0 238.5 C 172.32877 238.29822 171.69052 238.09445 171.0 238.0 C 171.0 238.10417 171.0 238.20833 171.0 238.3125 Z M 172.0 127.4375 C 172.34256 127.847824 172.63123 127.73697 173.0 127.5 C 172.68039 127.296585 172.35574 127.06959 172.0 127.4375 Z M 174.0 37.4375 C 174.34256 37.84782 174.63123 37.73697 175.0 37.5 C 174.68039 37.29658 174.35574 37.069584 174.0 37.4375 Z M 174.0 155.4375 C 174.34256 155.84782 174.63123 155.73697 175.0 155.5 C 174.68039 155.29659 174.35574 155.06958 174.0 155.4375 Z M 175.0 130.4375 C 175.34256 130.84782 175.63123 130.73697 176.0 130.5 C 175.68039 130.29659 175.35574 130.06958 175.0 130.4375 Z M 176.5 99.0 C 176.79456 98.35721 176.98451 97.701836 177.0 97.0 C 176.11603 97.057526 175.93536 97.77294 176.16667 98.48133 C 176.27779 98.65422 176.38889 98.82711 176.5 99.0 Z M 176.5 115.0 C 176.92085 113.994545 177.3703 112.19173 176.0 112.0 C 175.97668 113.032646 176.1476 114.04461 176.5 115.0 Z M 177.0 158.4375 C 177.34256 158.84782 177.63123 158.73697 178.0 158.5 C 177.68039 158.29659 177.35574 158.06958 177.0 158.4375 Z M 178.0 133.4375 C 178.34256 133.84782 178.63123 133.73697 179.0 133.5 C 178.68039 133.29659 178.35574 133.06958 178.0 133.4375 Z M 179.0 45.4375 C 179.34256 45.84782 179.63123 45.73697 180.0 45.5 C 179.68039 45.29658 179.35574 45.069584 179.0 45.4375 Z M 179.0 195.4375 C 179.34256 195.84782 179.63123 195.73697 180.0 195.5 C 179.68039 195.29659 179.35574 195.06958 179.0 195.4375 Z M 180.0 161.4375 C 180.34256 161.84782 180.63123 161.73697 181.0 161.5 C 180.68039 161.29659 180.35574 161.06958 180.0 161.4375 Z M 180.5 252.0 C 180.79456 251.35721 180.98451 250.70184 181.0 250.0 C 180.11603 250.05753 179.93536 250.77295 180.16667 251.48134 C 180.27779 251.65422 180.38889 251.82712 180.5 252.0 Z M 181.0 136.4375 C 181.34256 136.84782 181.63123 136.73697 182.0 136.5 C 181.68039 136.29659 181.35574 136.06958 181.0 136.4375 Z M 183.0 193.5 C 182.39783 193.14018 181.70432 192.96338 181.0 193.0 C 180.74026 194.57681 181.65201 195.02425 182.54471 193.95529 C 182.69595 193.80405 182.84932 193.65068 183.0 193.5 Z M 183.0 164.4375 C 183.34256 164.84782 183.63123 164.73697 184.0 164.5 C 183.68039 164.29659 183.35574 164.06958 183.0 164.4375 Z M 184.0 139.4375 C 184.34256 139.84782 184.63123 139.73697 185.0 139.5 C 184.68039 139.29659 184.35574 139.06958 184.0 139.4375 Z M 184.0 192.4375 C 184.34256 192.84782 184.63123 192.73697 185.0 192.5 C 184.68039 192.29659 184.35574 192.06958 184.0 192.4375 Z M 186.0 167.4375 C 186.34256 167.84782 186.63123 167.73697 187.0 167.5 C 186.68039 167.29659 186.35574 167.06958 186.0 167.4375 Z M 187.0 18.4375 C 187.34256 18.84782 187.63123 18.73697 188.0 18.5 C 187.68039 18.296583 187.35574 18.069584 187.0 18.4375 Z M 187.0 142.4375 C 187.34256 142.84782 187.63123 142.73697 188.0 142.5 C 187.68039 142.29659 187.35574 142.06958 187.0 142.4375 Z M 188.0 189.4375 C 188.34256 189.84782 188.63123 189.73697 189.0 189.5 C 188.68039 189.29659 188.35574 189.06958 188.0 189.4375 Z M 189.0 170.4375 C 189.34256 170.84782 189.63123 170.73697 190.0 170.5 C 189.68039 170.29659 189.35574 170.06958 189.0 170.4375 Z M 190.0 145.4375 C 190.34256 145.84782 190.63123 145.73697 191.0 145.5 C 190.68039 145.29659 190.35574 145.06958 190.0 145.4375 Z M 191.0 21.4375 C 191.34256 21.84782 191.63123 21.73697 192.0 21.5 C 191.68039 21.296583 191.35574 21.069584 191.0 21.4375 Z M 192.0 173.4375 C 192.34256 173.84782 192.63123 173.73697 193.0 173.5 C 192.68039 173.29659 192.35574 173.06958 192.0 173.4375 Z M 192.0 186.4375 C 192.34256 186.84782 192.63123 186.73697 193.0 186.5 C 192.68039 186.29659 192.35574 186.06958 192.0 186.4375 Z M 193.0 148.4375 C 193.34256 148.84782 193.63123 148.73697 194.0 148.5 C 193.68039 148.29659 193.35574 148.06958 193.0 148.4375 Z M 194.5 186.0 C 194.79456 185.35721 194.98451 184.70184 195.0 184.0 C 194.11603 184.05753 193.93536 184.77295 194.16667 185.48134 C 194.27779 185.65422 194.38889 185.82712 194.5 186.0 Z M 195.0 176.4375 C 195.34256 176.84782 195.63123 176.73697 196.0 176.5 C 195.68039 176.29659 195.35574 176.06958 195.0 176.4375 Z M 196.0 25.4375 C 196.34256 25.84782 196.63123 25.73697 197.0 25.5 C 196.68039 25.296583 196.35574 25.069584 196.0 25.4375 Z M 196.0 151.4375 C 196.34256 151.84782 196.63123 151.73697 197.0 151.5 C 196.68039 151.29659 196.35574 151.06958 196.0 151.4375 Z M 196.0 183.45312 C 196.44318 183.88142 197.04541 183.38422 197.42029 183.07971 C 197.61748 182.88252 197.81071 182.68929 198.0 182.5 C 197.27635 182.09549 196.29346 182.90637 196.0 183.45312 Z M 198.0 179.4375 C 198.34256 179.84782 198.63123 179.73697 199.0 179.5 C 198.68039 179.29659 198.35574 179.06958 198.0 179.4375 Z M 199.0 154.4375 C 199.34256 154.84782 199.63123 154.73697 200.0 154.5 C 199.68039 154.29659 199.35574 154.06958 199.0 154.4375 Z M 201.0 182.4375 C 201.34256 182.84782 201.63123 182.73697 202.0 182.5 C 201.68039 182.29659 201.35574 182.06958 201.0 182.4375 Z M 202.0 157.4375 C 202.34256 157.84782 202.63123 157.73697 203.0 157.5 C 202.68039 157.29659 202.35574 157.06958 202.0 157.4375 Z M 204.0 33.4375 C 204.34256 33.84782 204.63123 33.73697 205.0 33.5 C 204.68039 33.29658 204.35574 33.069584 204.0 33.4375 Z M 204.0 185.4375 C 204.34256 185.84782 204.63123 185.73697 205.0 185.5 C 204.68039 185.29659 204.35574 185.06958 204.0 185.4375 Z M 205.0 160.4375 C 205.34256 160.84782 205.63123 160.73697 206.0 160.5 C 205.68039 160.29659 205.35574 160.06958 205.0 160.4375 Z M 207.0 188.4375 C 207.34256 188.84782 207.63123 188.73697 208.0 188.5 C 207.68039 188.29659 207.35574 188.06958 207.0 188.4375 Z M 208.0 163.4375 C 208.34256 163.84782 208.63123 163.73697 209.0 163.5 C 208.68039 163.29659 208.35574 163.06958 208.0 163.4375 Z M 209.5 40.0 C 209.79456 39.35721 209.98451 38.70184 210.0 38.0 C 209.11603 38.057526 208.93536 38.77294 209.16667 39.481335 C 209.27779 39.65422 209.38889 39.82711 209.5 40.0 Z M 210.0 191.4375 C 210.34256 191.84782 210.63123 191.73697 211.0 191.5 C 210.68039 191.29659 210.35574 191.06958 210.0 191.4375 Z M 211.0 166.4375 C 211.34256 166.84782 211.63123 166.73697 212.0 166.5 C 211.68039 166.29659 211.35574 166.06958 211.0 166.4375 Z M 212.5 44.0 C 212.79456 43.35721 212.98451 42.70184 213.0 42.0 C 212.11603 42.057526 211.93536 42.77294 212.16667 43.481335 C 212.26118 43.628384 212.38771 43.825287 212.5 44.0 Z M 213.0 194.4375 C 213.34256 194.84782 213.63123 194.73697 214.0 194.5 C 213.68039 194.29659 213.35574 194.06958 213.0 194.4375 Z M 214.0 169.4375 C 214.34256 169.84782 214.63123 169.73697 215.0 169.5 C 214.68039 169.29659 214.35574 169.06958 214.0 169.4375 Z M 217.0 48.5 C 216.3956 47.901398 215.82352 47.24528 215.0 47.0 C 214.81372 47.98413 215.40833 49.40792 216.76134 48.655437 C 216.8409 48.603626 216.92044 48.55181 217.0 48.5 Z M 216.0 197.4375 C 216.34256 197.84782 216.63123 197.73697 217.0 197.5 C 216.68039 197.29659 216.35574 197.06958 216.0 197.4375 Z M 217.0 50.4375 C 217.34256 50.84782 217.63123 50.73697 218.0 50.5 C 217.68039 50.29658 217.35574 50.069584 217.0 50.4375 Z M 217.0 172.4375 C 217.34256 172.84782 217.63123 172.73697 218.0 172.5 C 217.68039 172.29659 217.35574 172.06958 217.0 172.4375 Z M 220.0 53.5 C 219.3956 52.901398 218.82352 52.24528 218.0 52.0 C 217.81372 52.98413 218.40833 54.40792 219.76134 53.655437 C 219.8409 53.603626 219.92044 53.55181 220.0 53.5 Z M 220.0 175.4375 C 220.34256 175.84782 220.63123 175.73697 221.0 175.5 C 220.68039 175.29659 220.35574 175.06958 220.0 175.4375 Z M 222.5 150.0 C 222.79456 149.35721 222.98451 148.70184 223.0 148.0 C 222.11603 148.05753 221.93536 148.77295 222.16667 149.48134 C 222.2745 149.64912 222.40105 149.84604 222.5 150.0 Z M 223.0 178.4375 C 223.34256 178.84782 223.63123 178.73697 224.0 178.5 C 223.68039 178.29659 223.35574 178.06958 223.0 178.4375 Z M 224.5 146.0 C 224.79456 145.35721 224.98451 144.70184 225.0 144.0 C 224.11603 144.05753 223.93536 144.77295 224.16667 145.48134 C 224.27779 145.65422 224.38889 145.82712 224.5 146.0 Z M 225.0 66.4375 C 225.34256 66.847824 225.63123 66.73697 226.0 66.5 C 225.68039 66.296585 225.35574 66.06959 225.0 66.4375 Z M 226.0 70.4375 C 226.34256 70.847824 226.63123 70.73697 227.0 70.5 C 226.68039 70.296585 226.35574 70.06959 226.0 70.4375 Z M 226.0 139.4375 C 226.34256 139.84782 226.63123 139.73697 227.0 139.5 C 226.68039 139.29659 226.35574 139.06958 226.0 139.4375 Z M 226.0 181.4375 C 226.34256 181.84782 226.63123 181.73697 227.0 181.5 C 226.68039 181.29659 226.35574 181.06958 226.0 181.4375 Z M 229.5 81.0 C 229.92085 79.994545 230.3703 78.19173 229.0 78.0 C 228.97668 79.032646 229.1476 80.04461 229.5 81.0 Z M 229.0 184.4375 C 229.34256 184.84782 229.63123 184.73697 230.0 184.5 C 229.68039 184.29659 229.35574 184.06958 229.0 184.4375 Z M 230.5 86.0 C 230.79456 85.35721 230.98451 84.701836 231.0 84.0 C 230.11603 84.057526 229.93536 84.77294 230.16667 85.48133 C 230.28667 85.66805 230.39778 85.84094 230.5 86.0 Z M 231.5 91.0 C 231.79456 90.35721 231.98451 89.701836 232.0 89.0 C 231.11603 89.057526 230.93536 89.77294 231.16667 90.48133 C 231.2745 90.64913 231.40105 90.84603 231.5 91.0 Z M 232.0 104.4375 C 232.34256 104.847824 232.63123 104.73697 233.0 104.5 C 232.68039 104.296585 232.35574 104.06959 232.0 104.4375 Z M 232.5 110.0 C 232.74794 108.78227 233.65848 106.305565 232.0 106.0 C 231.92776 107.37675 232.10349 108.694756 232.5 110.0 Z " />

<path style="fill:rgb(60.39216%,0.0%,0.0%);fill-rule:evenodd;stroke:none;" name="Path No.2" d="M 23.0 102.4375 C 23.342558 102.847824 23.631227 102.73697 24.0 102.5 C 23.680395 102.296585 23.355738 102.06959 23.0 102.4375 Z M 23.0 107.4375 C 23.342558 107.847824 23.631227 107.73697 24.0 107.5 C 23.680395 107.296585 23.355738 107.06959 23.0 107.4375 Z M 23.5 111.0 C 23.794552 110.35721 23.984505 109.701836 24.0 109.0 C 23.116022 109.057526 22.935356 109.77294 23.166674 110.48133 C 23.277782 110.65422 23.388891 110.82711 23.5 111.0 Z M 24.5 90.0 C 24.794552 89.35721 24.984505 88.701836 25.0 88.0 C 24.116022 88.057526 23.935356 88.77294 24.166674 89.48133 C 24.277782 89.65422 24.388891 89.82711 24.5 90.0 Z M 24.5 121.0 C 24.794552 120.35721 24.984505 119.701836 25.0 119.0 C 24.116022 119.057526 23.935356 119.77294 24.166674 120.48133 C 24.277782 120.65422 24.388891 120.82711 24.5 121.0 Z M 25.5 85.0 C 25.920855 83.994545 26.370295 82.19173 25.0 82.0 C 24.97669 83.032646 25.147594 84.04461 25.5 85.0 Z M 25.0 125.453125 C 25.423233 126.06141 26.336443 126.89301 27.0 126.5 C 26.395594 125.9014 25.82352 125.24528 25.0 125.0 C 25.0 125.14659 25.0 125.31861 25.0 125.453125 Z M 35.5 154.0 C 35.79455 153.35721 35.984505 152.70184 36.0 152.0 C 35.11602 152.05753 34.935356 152.77295 35.16667 153.48134 C 35.277782 153.65422 35.38889 153.82712 35.5 154.0 Z M 37.0 52.4375 C 37.342556 52.84782 37.63123 52.73697 38.0 52.5 C 37.680393 52.29658 37.35574 52.069584 37.0 52.4375 Z M 40.0 47.4375 C 40.342556 47.84782 40.63123 47.73697 41.0 47.5 C 40.680393 47.29658 40.35574 47.069584 40.0 47.4375 Z M 42.5 46.0 C 42.79455 45.35721 42.984505 44.70184 43.0 44.0 C 42.11602 44.057526 41.935356 44.77294 42.16667 45.481335 C 42.277782 45.65422 42.38889 45.82711 42.5 46.0 Z M 44.5 168.0 C 44.79455 167.35721 44.984505 166.70184 45.0 166.0 C 44.11602 166.05753 43.935356 166.77295 44.16667 167.48134 C 44.27451 167.64912 44.40105 167.84604 44.5 168.0 Z M 45.5 42.0 C 45.79455 41.35721 45.984505 40.70184 46.0 40.0 C 45.11602 40.057526 44.935356 40.77294 45.16667 41.481335 C 45.277782 41.65422 45.38889 41.82711 45.5 42.0 Z M 47.5 172.0 C 47.79455 171.35721 47.984505 170.70184 48.0 170.0 C 47.11602 170.05753 46.935356 170.77295 47.16667 171.48134 C 47.277782 171.65422 47.38889 171.82712 47.5 172.0 Z M 48.0 36.4375 C 48.342556 36.84782 48.63123 36.73697 49.0 36.5 C 48.680393 36.29658 48.35574 36.069584 48.0 36.4375 Z M 53.0 177.4375 C 53.342556 177.84782 53.63123 177.73697 54.0 177.5 C 53.680393 177.29659 53.35574 177.06958 53.0 177.4375 Z M 64.0 187.4375 C 64.34256 187.84782 64.631226 187.73697 65.0 187.5 C 64.6804 187.29659 64.355736 187.06958 64.0 187.4375 Z M 68.0 190.4375 C 68.34256 190.84782 68.631226 190.73697 69.0 190.5 C 68.6804 190.29659 68.355736 190.06958 68.0 190.4375 Z M 73.0 193.4375 C 73.34256 193.84782 73.631226 193.73697 74.0 193.5 C 73.6804 193.29659 73.355736 193.06958 73.0 193.4375 Z M 76.0 13.4375 C 76.34256 13.84782 76.631226 13.73697 77.0 13.5 C 76.6804 13.296583 76.355736 13.069585 76.0 13.4375 Z M 76.0 242.4375 C 76.34256 242.84782 76.631226 242.73697 77.0 242.5 C 76.6804 242.29659 76.355736 242.06958 76.0 242.4375 Z M 79.5 113.0 C 79.92085 111.994545 80.37029 110.19173 79.0 110.0 C 78.97669 111.032646 79.1476 112.04461 79.5 113.0 Z M 80.5 117.0 C 80.794556 116.35721 80.984505 115.701836 81.0 115.0 C 80.11602 115.057526 79.935356 115.77294 80.16667 116.48133 C 80.27778 116.65422 80.38889 116.82711 80.5 117.0 Z M 81.0 87.4375 C 81.34256 87.847824 81.631226 87.73697 82.0 87.5 C 81.6804 87.296585 81.355736 87.06959 81.0 87.4375 Z M 85.0 9.5 C 84.39783 9.140186 83.70431 8.963373 83.0 9.0 C 82.74026 10.576812 83.65201 11.024242 84.54471 9.955291 C 84.69595 9.804048 84.84933 9.650676 85.0 9.5 Z M 83.0 82.3125 C 83.334 83.021706 84.45081 82.659035 85.0 82.5 C 84.32876 82.298225 83.69053 82.09445 83.0 82.0 C 83.0 82.104164 83.0 82.208336 83.0 82.3125 Z M 84.0 128.4375 C 84.34256 128.84782 84.631226 128.73697 85.0 128.5 C 84.6804 128.29659 84.355736 128.06958 84.0 128.4375 Z M 85.0 78.25 C 85.26059 79.0436 86.3162 79.02582 87.0 79.0 C 86.9697 78.28618 86.814384 77.63551 86.5 77.0 C 86.05407 77.52491 85.402916 77.86147 85.0 78.25 Z M 88.5 76.0 C 88.794556 75.35721 88.984505 74.701836 89.0 74.0 C 88.11602 74.057526 87.935356 74.77294 88.16667 75.48133 C 88.27778 75.65422 88.38889 75.82711 88.5 76.0 Z M 89.5 136.0 C 89.794556 135.35721 89.984505 134.70184 90.0 134.0 C 89.11602 134.05753 88.935356 134.77295 89.16667 135.48134 C 89.27778 135.65422 89.38889 135.82712 89.5 136.0 Z M 94.0 100.4375 C 94.34256 100.847824 94.631226 100.73697 95.0 100.5 C 94.6804 100.296585 94.355736 100.06959 94.0 100.4375 Z M 94.5 111.0 C 94.794556 110.35721 94.984505 109.701836 95.0 109.0 C 94.11602 109.057526 93.935356 109.77294 94.16667 110.48133 C 94.27778 110.65422 94.38889 110.82711 94.5 111.0 Z M 96.0 90.4375 C 96.34256 90.847824 96.631226 90.73697 97.0 90.5 C 96.6804 90.296585 96.355736 90.06959 96.0 90.4375 Z M 96.0 234.4375 C 96.34256 234.84782 96.631226 234.73697 97.0 234.5 C 96.6804 234.29659 96.355736 234.06958 96.0 234.4375 Z M 98.0 121.4375 C 98.34256 121.847824 98.631226 121.73697 99.0 121.5 C 98.6804 121.296585 98.355736 121.06959 98.0 121.4375 Z M 99.0 144.4375 C 99.34256 144.84782 99.631226 144.73697 100.0 144.5 C 99.6804 144.29659 99.355736 144.06958 99.0 144.4375 Z M 100.0 205.3125 C 100.334 206.0217 101.45081 205.65904 102.0 205.5 C 101.32876 205.29822 100.69053 205.09445 100.0 205.0 C 100.0 205.10417 100.0 205.20833 100.0 205.3125 Z M 103.0 2.3125 C 103.334 3.021702 104.45081 2.6590374 105.0 2.5 C 104.32876 2.2982218 103.69053 2.0944538 103.0 2.0 C 103.0 2.1041667 103.0 2.2083333 103.0 2.3125 Z M 104.0 228.4375 C 104.34256 228.84782 104.631226 228.73697 105.0 228.5 C 104.6804 228.29659 104.355736 228.06958 104.0 228.4375 Z M 109.0 207.25 C 109.957504 208.24565 111.9643 207.81819 113.44218 208.03357 C 114.938614 208.04189 116.6579 208.84985 118.0 208.5 C 115.68694 207.06064 111.88812 206.58122 109.0 207.25 Z M 109.0 222.4375 C 109.34256 222.84782 109.631226 222.73697 110.0 222.5 C 109.6804 222.29659 109.355736 222.06958 109.0 222.4375 Z M 112.5 218.0 C 112.794556 217.35721 112.984505 216.70184 113.0 216.0 C 112.11602 216.05753 111.935356 216.77295 112.16667 217.48134 C 112.27778 217.65422 112.38889 217.82712 112.5 218.0 Z M 114.0 135.4375 C 114.34256 135.84782 114.631226 135.73697 115.0 135.5 C 114.6804 135.29659 114.355736 135.06958 114.0 135.4375 Z M 118.0 217.4375 C 118.34256 217.84782 118.631226 217.73697 119.0 217.5 C 118.6804 217.29659 118.355736 217.06958 118.0 217.4375 Z M 120.0 217.4375 C 120.34256 217.84782 120.631226 217.73697 121.0 217.5 C 120.6804 217.29659 120.355736 217.06958 120.0 217.4375 Z M 121.0 55.4375 C 121.34256 55.84782 121.631226 55.73697 122.0 55.5 C 121.6804 55.29658 121.355736 55.069584 121.0 55.4375 Z M 121.0 208.4375 C 121.34256 208.84782 121.631226 208.73697 122.0 208.5 C 121.6804 208.29659 121.355736 208.06958 121.0 208.4375 Z M 123.0 153.3125 C 123.334 154.0217 124.45081 153.65904 125.0 153.5 C 124.32876 153.29822 123.69053 153.09445 123.0 153.0 C 123.0 153.10417 123.0 153.20833 123.0 153.3125 Z M 123.0 208.4375 C 123.34256 208.84782 123.631226 208.73697 124.0 208.5 C 123.6804 208.29659 123.355736 208.06958 123.0 208.4375 Z M 124.0 138.4375 C 124.34256 138.84782 124.631226 138.73697 125.0 138.5 C 124.6804 138.29659 124.355736 138.06958 124.0 138.4375 Z M 125.0 208.4375 C 125.34256 208.84782 125.631226 208.73697 126.0 208.5 C 125.6804 208.29659 125.355736 208.06958 125.0 208.4375 Z M 125.0 217.4375 C 125.34256 217.84782 125.631226 217.73697 126.0 217.5 C 125.6804 217.29659 125.355736 217.06958 125.0 217.4375 Z M 127.0 138.4375 C 127.34256 138.84782 127.631226 138.73697 128.0 138.5 C 127.6804 138.29659 127.355736 138.06958 127.0 138.4375 Z M 127.0 153.3125 C 127.334 154.0217 128.4508 153.65904 129.0 153.5 C 128.32877 153.29822 127.69053 153.09445 127.0 153.0 C 127.0 153.10417 127.0 153.20833 127.0 153.3125 Z M 127.0 208.3125 C 127.334 209.0217 128.4508 208.65904 129.0 208.5 C 128.32877 208.29822 127.69053 208.09445 127.0 208.0 C 127.0 208.10417 127.0 208.20833 127.0 208.3125 Z M 130.0 208.4375 C 130.34256 208.84782 130.63123 208.73697 131.0 208.5 C 130.68039 208.29659 130.35574 208.06958 130.0 208.4375 Z M 130.0 217.4375 C 130.34256 217.84782 130.63123 217.73697 131.0 217.5 C 130.68039 217.29659 130.35574 217.06958 130.0 217.4375 Z M 131.0 153.3125 C 131.334 154.0217 132.4508 153.65904 133.0 153.5 C 132.32877 153.29822 131.69052 153.09445 131.0 153.0 C 131.0 153.10417 131.0 153.20833 131.0 153.3125 Z M 132.0 208.4375 C 132.34256 208.84782 132.63123 208.73697 133.0 208.5 C 132.68039 208.29659 132.35574 208.06958 132.0 208.4375 Z M 134.0 55.4375 C 134.34256 55.84782 134.63123 55.73697 135.0 55.5 C 134.68039 55.29658 134.35574 55.069584 134.0 55.4375 Z M 134.0 208.4375 C 134.34256 208.84782 134.63123 208.73697 135.0 208.5 C 134.68039 208.29659 134.35574 208.06958 134.0 208.4375 Z M 135.0 217.4375 C 135.34256 217.84782 135.63123 217.73697 136.0 217.5 C 135.68039 217.29659 135.35574 217.06958 135.0 217.4375 Z M 138.0 208.375 C 140.94078 209.09207 143.84297 206.80414 147.0 207.5 C 144.05602 207.23505 140.65688 206.62982 138.0 208.375 Z M 141.0 135.4375 C 141.34256 135.84782 141.63123 135.73697 142.0 135.5 C 141.68039 135.29659 141.35574 135.06958 141.0 135.4375 Z M 142.0 73.3125 C 142.334 74.021706 143.4508 73.659035 144.0 73.5 C 143.32877 73.298225 142.69052 73.09445 142.0 73.0 C 142.0 73.104164 142.0 73.208336 142.0 73.3125 Z M 142.0 216.3125 C 142.334 217.0217 143.4508 216.65904 144.0 216.5 C 143.32877 216.29822 142.69052 216.09445 142.0 216.0 C 142.0 216.10417 142.0 216.20833 142.0 216.3125 Z M 144.5 59.0 C 144.79456 58.35721 144.98451 57.70184 145.0 57.0 C 144.11603 57.057526 143.93536 57.77294 144.16667 58.481335 C 144.2745 58.64913 144.40105 58.84603 144.5 59.0 Z M 146.0 58.4375 C 146.34256 58.84782 146.63123 58.73697 147.0 58.5 C 146.68039 58.29658 146.35574 58.069584 146.0 58.4375 Z M 148.0 132.5 C 147.39783 132.14018 146.70432 131.96338 146.0 132.0 C 145.74026 133.57681 146.65201 134.02425 147.54471 132.95529 C 147.69595 132.80405 147.84932 132.65068 148.0 132.5 Z M 146.0 222.4375 C 146.34256 222.84782 146.63123 222.73697 147.0 222.5 C 146.68039 222.29659 146.35574 222.06958 146.0 222.4375 Z M 147.0 76.4375 C 147.34256 76.847824 147.63123 76.73697 148.0 76.5 C 147.68039 76.296585 147.35574 76.06959 147.0 76.4375 Z M 150.0 78.4375 C 150.34256 78.847824 150.63123 78.73697 151.0 78.5 C 150.68039 78.296585 150.35574 78.06959 150.0 78.4375 Z M 151.0 228.45312 C 151.42323 229.06142 152.33644 229.89302 153.0 229.5 C 152.3956 228.9014 151.82352 228.24529 151.0 228.0 C 151.0 228.14659 151.0 228.31862 151.0 228.45312 Z M 154.0 3.4375 C 154.34256 3.8478203 154.63123 3.73697 155.0 3.5 C 154.68039 3.296583 154.35574 3.0695844 154.0 3.4375 Z M 155.0 84.4375 C 155.34256 84.847824 155.63123 84.73697 156.0 84.5 C 155.68039 84.296585 155.35574 84.06959 155.0 84.4375 Z M 156.0 64.4375 C 156.34256 64.847824 156.63123 64.73697 157.0 64.5 C 156.68039 64.296585 156.35574 64.06959 156.0 64.4375 Z M 156.0 144.4375 C 156.34256 144.84782 156.63123 144.73697 157.0 144.5 C 156.68039 144.29659 156.35574 144.06958 156.0 144.4375 Z M 157.0 4.3125 C 157.33842 5.058831 158.50522 4.797918 159.06024 4.679003 C 159.36975 4.6200466 159.69963 4.557213 160.0 4.5 C 159.003 4.328723 158.00952 4.0857244 157.0 4.0 C 157.0 4.1041665 157.0 4.2083335 157.0 4.3125 Z M 157.5 88.0 C 157.79456 87.35721 157.98451 86.701836 158.0 86.0 C 157.11603 86.057526 156.93536 86.77294 157.16667 87.48133 C 157.27779 87.65422 157.38889 87.82711 157.5 88.0 Z M 158.0 89.453125 C 158.42323 90.06141 159.33644 90.89301 160.0 90.5 C 159.3956 89.9014 158.82352 89.24528 158.0 89.0 C 158.0 89.14659 158.0 89.31861 158.0 89.453125 Z M 159.0 234.4375 C 159.34256 234.84782 159.63123 234.73697 160.0 234.5 C 159.68039 234.29659 159.35574 234.06958 159.0 234.4375 Z M 160.0 67.4375 C 160.34256 67.847824 160.63123 67.73697 161.0 67.5 C 160.68039 67.296585 160.35574 67.06959 160.0 67.4375 Z M 160.0 95.4375 C 160.34256 95.847824 160.63123 95.73697 161.0 95.5 C 160.68039 95.296585 160.35574 95.06959 160.0 95.4375 Z M 161.5 100.0 C 161.92085 98.994545 162.3703 97.19173 161.0 97.0 C 160.97668 98.032646 161.1476 99.04461 161.5 100.0 Z M 163.0 70.4375 C 163.34256 70.847824 163.63123 70.73697 164.0 70.5 C 163.68039 70.296585 163.35574 70.06959 163.0 70.4375 Z M 165.0 237.3125 C 165.334 238.0217 166.4508 237.65904 167.0 237.5 C 166.32877 237.29822 165.69052 237.09445 165.0 237.0 C 165.0 237.10417 165.0 237.20833 165.0 237.3125 Z M 167.0 52.3125 C 167.334 53.0217 168.4508 52.65904 169.0 52.5 C 168.32877 52.29822 167.69052 52.09445 167.0 52.0 C 167.0 52.104168 167.0 52.208332 167.0 52.3125 Z M 167.5 76.0 C 167.79456 75.35721 167.98451 74.701836 168.0 74.0 C 167.11603 74.057526 166.93536 74.77294 167.16667 75.48133 C 167.27779 75.65422 167.38889 75.82711 167.5 76.0 Z M 169.0 37.3125 C 169.334 38.0217 170.4508 37.65904 171.0 37.5 C 170.32877 37.29822 169.69052 37.09445 169.0 37.0 C 169.0 37.104168 169.0 37.208332 169.0 37.3125 Z M 171.0 78.5 C 170.3956 77.9014 169.82352 77.24528 169.0 77.0 C 168.81372 77.98413 169.40833 79.40792 170.76134 78.65544 C 170.83855 78.60515 170.92915 78.54614 171.0 78.5 Z M 171.0 9.375 C 171.3794 10.004885 172.04713 10.510128 172.5 11.0 C 172.86073 10.38041 173.00969 9.706431 173.0 9.0 C 172.3275 9.0 171.66365 9.0 171.0 9.0 C 171.0 9.106319 171.0 9.24868 171.0 9.375 Z M 171.0 53.3125 C 171.334 54.0217 172.4508 53.65904 173.0 53.5 C 172.32877 53.29822 171.69052 53.09445 171.0 53.0 C 171.0 53.104168 171.0 53.208332 171.0 53.3125 Z M 171.0 82.3125 C 171.334 83.021706 172.4508 82.659035 173.0 82.5 C 172.32877 82.298225 171.69052 82.09445 171.0 82.0 C 171.0 82.104164 171.0 82.208336 171.0 82.3125 Z M 174.0 87.4375 C 174.34256 87.847824 174.63123 87.73697 175.0 87.5 C 174.68039 87.296585 174.35574 87.06959 174.0 87.4375 Z M 176.5 113.0 C 176.92085 111.994545 177.3703 110.19173 176.0 110.0 C 175.97668 111.032646 176.1476 112.04461 176.5 113.0 Z M 176.0 239.4375 C 176.34256 239.84782 176.63123 239.73697 177.0 239.5 C 176.68039 239.29659 176.35574 239.06958 176.0 239.4375 Z M 177.0 254.4375 C 177.34256 254.84782 177.63123 254.73697 178.0 254.5 C 177.68039 254.29659 177.35574 254.06958 177.0 254.4375 Z M 178.0 241.3125 C 178.44295 242.07762 179.105 242.88168 179.0 244.0 C 179.7017 243.9749 180.39957 243.89268 181.0 243.5 C 180.07927 242.64122 179.11116 241.41177 178.0 241.0 C 178.0 241.10417 178.0 241.20833 178.0 241.3125 Z M 179.0 13.4375 C 179.34256 13.84782 179.63123 13.73697 180.0 13.5 C 179.68039 13.296583 179.35574 13.069585 179.0 13.4375 Z M 180.0 248.4375 C 180.34256 248.84782 180.63123 248.73697 181.0 248.5 C 180.68039 248.29659 180.35574 248.06958 180.0 248.4375 Z M 182.0 193.4375 C 182.34256 193.84782 182.63123 193.73697 183.0 193.5 C 182.68039 193.29659 182.35574 193.06958 182.0 193.4375 Z M 184.0 16.4375 C 184.34256 16.84782 184.63123 16.73697 185.0 16.5 C 184.68039 16.296583 184.35574 16.069584 184.0 16.4375 Z M 187.0 190.4375 C 187.34256 190.84782 187.63123 190.73697 188.0 190.5 C 187.68039 190.29659 187.35574 190.06958 187.0 190.4375 Z M 190.0 20.4375 C 190.34256 20.84782 190.63123 20.73697 191.0 20.5 C 190.68039 20.296583 190.35574 20.069584 190.0 20.4375 Z M 191.0 187.4375 C 191.34256 187.84782 191.63123 187.73697 192.0 187.5 C 191.68039 187.29659 191.35574 187.06958 191.0 187.4375 Z M 194.0 23.4375 C 194.34256 23.84782 194.63123 23.73697 195.0 23.5 C 194.68039 23.296583 194.35574 23.069584 194.0 23.4375 Z M 197.0 26.4375 C 197.34256 26.84782 197.63123 26.73697 198.0 26.5 C 197.68039 26.296583 197.35574 26.069584 197.0 26.4375 Z M 199.0 28.4375 C 199.34256 28.84782 199.63123 28.73697 200.0 28.5 C 199.68039 28.296583 199.35574 28.069584 199.0 28.4375 Z M 205.0 34.4375 C 205.34256 34.84782 205.63123 34.73697 206.0 34.5 C 205.68039 34.29658 205.35574 34.069584 205.0 34.4375 Z M 210.5 42.0 C 210.79456 41.35721 210.98451 40.70184 211.0 40.0 C 210.11603 40.057526 209.93536 40.77294 210.16667 41.481335 C 210.26118 41.628384 210.38771 41.825287 210.5 42.0 Z M 213.5 46.0 C 213.79456 45.35721 213.98451 44.70184 214.0 44.0 C 213.11603 44.057526 212.93536 44.77294 213.16667 45.481335 C 213.26118 45.628384 213.38771 45.825287 213.5 46.0 Z M 215.0 47.4375 C 215.34256 47.84782 215.63123 47.73697 216.0 47.5 C 215.68039 47.29658 215.35574 47.069584 215.0 47.4375 Z M 218.0 52.4375 C 218.34256 52.84782 218.63123 52.73697 219.0 52.5 C 218.68039 52.29658 218.35574 52.069584 218.0 52.4375 Z M 220.5 154.0 C 220.79456 153.35721 220.98451 152.70184 221.0 152.0 C 220.11603 152.05753 219.93536 152.77295 220.16667 153.48134 C 220.27779 153.65422 220.38889 153.82712 220.5 154.0 Z M 228.5 135.0 C 228.79456 134.35721 228.98451 133.70184 229.0 133.0 C 228.11603 133.05753 227.93536 133.77295 228.16667 134.48134 C 228.2745 134.64912 228.40105 134.84604 228.5 135.0 Z M 229.5 131.0 C 229.79456 130.35721 229.98451 129.70184 230.0 129.0 C 229.11603 129.05753 228.93536 129.77295 229.16667 130.48134 C 229.28667 130.66806 229.39778 130.84094 229.5 131.0 Z M 230.5 85.0 C 230.92085 83.994545 231.3703 82.19173 230.0 82.0 C 229.97668 83.032646 230.1476 84.04461 230.5 85.0 Z M 230.0 125.4375 C 230.34256 125.847824 230.63123 125.73697 231.0 125.5 C 230.68039 125.296585 230.35574 125.06959 230.0 125.4375 Z M 231.5 90.0 C 231.79456 89.35721 231.98451 88.701836 232.0 88.0 C 231.11603 88.057526 230.93536 88.77294 231.16667 89.48133 C 231.27779 89.65422 231.38889 89.82711 231.5 90.0 Z M 231.5 121.0 C 231.79456 120.35721 231.98451 119.701836 232.0 119.0 C 231.11603 119.057526 230.93536 119.77294 231.16667 120.48133 C 231.27779 120.65422 231.38889 120.82711 231.5 121.0 Z M 232.0 102.4375 C 232.34256 102.847824 232.63123 102.73697 233.0 102.5 C 232.68039 102.296585 232.35574 102.06959 232.0 102.4375 Z M 232.0 107.4375 C 232.34256 107.847824 232.63123 107.73697 233.0 107.5 C 232.68039 107.296585 232.35574 107.06959 232.0 107.4375 Z M 232.5 111.0 C 232.79456 110.35721 232.98451 109.701836 233.0 109.0 C 232.11603 109.057526 231.93536 109.77294 232.16667 110.48133 C 232.27779 110.65422 232.38889 110.82711 232.5 111.0 Z " />

<path style="fill:rgb(57.64706%,0.0%,0.0%);fill-rule:evenodd;stroke:none;" name="Path No.3" d="M 42.0 164.4375 C 42.342556 164.84782 42.63123 164.73697 43.0 164.5 C 42.680393 164.29659 42.35574 164.06958 42.0 164.4375 Z M 45.0 168.4375 C 45.342556 168.84782 45.63123 168.73697 46.0 168.5 C 45.680393 168.29659 45.35574 168.06958 45.0 168.4375 Z M 87.0 76.4375 C 87.34256 76.847824 87.631226 76.73697 88.0 76.5 C 87.6804 76.296585 87.355736 76.06959 87.0 76.4375 Z M 88.0 133.4375 C 88.34256 133.84782 88.631226 133.73697 89.0 133.5 C 88.6804 133.29659 88.355736 133.06958 88.0 133.4375 Z M 95.0 115.4375 C 95.34256 115.847824 95.631226 115.73697 96.0 115.5 C 95.6804 115.296585 95.355736 115.06959 95.0 115.4375 Z M 102.0 127.4375 C 102.34256 127.847824 102.631226 127.73697 103.0 127.5 C 102.6804 127.296585 102.355736 127.06959 102.0 127.4375 Z M 104.0 129.4375 C 104.34256 129.84782 104.631226 129.73697 105.0 129.5 C 104.6804 129.29659 104.355736 129.06958 104.0 129.4375 Z M 164.0 49.4375 C 164.34256 49.84782 164.63123 49.73697 165.0 49.5 C 164.68039 49.29658 164.35574 49.069584 164.0 49.4375 Z M 166.0 237.4375 C 166.34256 237.84782 166.63123 237.73697 167.0 237.5 C 166.68039 237.29659 166.35574 237.06958 166.0 237.4375 Z M 168.0 76.4375 C 168.34256 76.847824 168.63123 76.73697 169.0 76.5 C 168.68039 76.296585 168.35574 76.06959 168.0 76.4375 Z M 172.0 238.4375 C 172.34256 238.84782 172.63123 238.73697 173.0 238.5 C 172.68039 238.29659 172.35574 238.06958 172.0 238.4375 Z M 206.0 35.4375 C 206.34256 35.84782 206.63123 35.73697 207.0 35.5 C 206.68039 35.29658 206.35574 35.069584 206.0 35.4375 Z " />

<path style="fill:rgb(60.784317%,0.0%,0.0%);fill-rule:evenodd;stroke:none;" name="Path No.4" d="M 23.0 100.4375 C 23.342558 100.847824 23.631227 100.73697 24.0 100.5 C 23.680395 100.296585 23.355738 100.06959 23.0 100.4375 Z M 119.0 208.4375 C 119.34256 208.84782 119.631226 208.73697 120.0 208.5 C 119.6804 208.29659 119.355736 208.06958 119.0 208.4375 Z M 131.0 138.4375 C 131.34256 138.84782 131.63123 138.73697 132.0 138.5 C 131.68039 138.29659 131.35574 138.06958 131.0 138.4375 Z M 136.0 208.4375 C 136.34256 208.84782 136.63123 208.73697 137.0 208.5 C 136.68039 208.29659 136.35574 208.06958 136.0 208.4375 Z M 160.0 93.4375 C 160.34256 93.847824 160.63123 93.73697 161.0 93.5 C 160.68039 93.296585 160.35574 93.06959 160.0 93.4375 Z M 161.0 97.4375 C 161.34256 97.847824 161.63123 97.73697 162.0 97.5 C 161.68039 97.296585 161.35574 97.06959 161.0 97.4375 Z M 232.0 100.4375 C 232.34256 100.847824 232.63123 100.73697 233.0 100.5 C 232.68039 100.296585 232.35574 100.06959 232.0 100.4375 Z " />
</g>
</svg>
