<?xml version="1.0" standalone="no"?>
<!DOCTYPE svg PUBLIC "-//W3C//DTD SVG 20010904//EN"
 "http://www.w3.org/TR/2001/REC-SVG-20010904/DTD/svg10.dtd">
<svg version="1.0" xmlns="http://www.w3.org/2000/svg"
 width="2733.000000pt" height="2733.000000pt" viewBox="0 0 2733.000000 2733.000000"
 preserveAspectRatio="xMidYMid meet">

<g transform="translate(0.000000,2733.000000) scale(0.100000,-0.100000)"
fill="#4B4B4B" stroke="none">
<path d="M10360 20895 l-6435 -6435 5265 -5265 5265 -5265 6437 6437 6438
6438 -5262 5262 c-2895 2895 -5265 5263 -5268 5263 -3 0 -2901 -2896 -6440
-6435z m10925 385 l1620 -1620 -5653 -5652 -5652 -5653 -1620 1620 c-891 891
-1620 1624 -1620 1630 0 13 11282 11295 11295 11295 6 0 739 -729 1630 -1620z"/>
<path d="M1605 12140 l-1610 -1610 5265 -5265 5265 -5265 1610 1610 1610 1610
-5265 5265 -5265 5265 -1610 -1610z m6023 -4513 l4402 -4402 -753 -753 -752
-752 -4405 4405 -4405 4405 750 750 c412 412 752 750 755 750 3 0 1986 -1981
4408 -4403z"/>
</g>
</svg>
