<?xml version="1.0" encoding="UTF-8"?>
<svg xmlns="http://www.w3.org/2000/svg" xmlns:xlink="http://www.w3.org/1999/xlink" width="256.0px" height="256.0px" viewBox="0 0 256.0 256.0" version="1.1">

<defs>
<!-- polycosvg ratio="1.000000" offsetx="0.000000" offsety="0.000000" / -->
</defs><g>
<path style="fill:#333;fill-rule:evenodd;stroke:none;" name="Path No.22" d="M 0.0 64.0 C 8.001227 64.0 16.014772 64.0 24.0 64.0 C 24.0 50.669437 24.0 37.319897 24.0 24.0 C 37.330563 24.0 50.680103 24.0 64.0 24.0 C 64.0 15.999181 64.0 7.9856358 64.0 0.0 C 42.665184 0.0 21.323576 0.0 0.0 0.0 C 0.0 21.340065 0.0 42.671177 0.0 64.0 Z M 0.0 256.0 C 21.345114 256.0 42.65869 256.0 64.0 256.0 C 64.0 248.00677 64.0 239.99323 64.0 232.0 C 50.669437 232.0 37.319897 232.0 24.0 232.0 C 24.0 218.66943 24.0 205.3199 24.0 192.0 C 15.999181 192.0 7.9856358 192.0 0.0 192.0 C 0.0 213.33978 0.0 234.67311 0.0 256.0 Z M 192.0 24.0 C 205.33057 24.0 218.6801 24.0 232.0 24.0 C 232.0 37.330563 232.0 50.680103 232.0 64.0 C 239.99323 64.0 248.00677 64.0 256.0 64.0 C 256.0 42.656704 256.0 21.33263 256.0 0.0 C 234.66089 0.0 213.32845 0.0 192.0 0.0 C 192.0 8.001227 192.0 16.014772 192.0 24.0 Z M 192.0 256.0 C 213.32933 256.0 234.68134 256.0 256.0 256.0 C 256.0 234.67067 256.0 213.31866 256.0 192.0 C 248.00677 192.0 239.99323 192.0 232.0 192.0 C 232.0 205.33057 232.0 218.6801 232.0 232.0 C 218.67174 232.0 205.3176 232.0 192.0 232.0 C 192.0 239.99323 192.0 248.00677 192.0 256.0 Z " />
</g>
</svg>
