<?xml version="1.0" encoding="UTF-8"?>
<svg xmlns="http://www.w3.org/2000/svg" xmlns:xlink="http://www.w3.org/1999/xlink" width="256.0px" height="256.0px" viewBox="0 0 256.0 256.0" version="1.1">

<defs>
<!-- polycosvg ratio="1.000000" offsetx="0.000000" offsety="0.000000" / -->
</defs><g>
<path style="fill:#333;fill-rule:evenodd;stroke:none;" name="Path No.0" d="M 56.0 120.0 C 63.99323 120.0 72.006775 120.0 80.0 120.0 C 80.0 106.66943 80.0 93.3199 80.0 80.0 C 93.33057 80.0 106.6801 80.0 120.0 80.0 C 120.0 72.006775 120.0 63.99323 120.0 56.0 C 98.665184 56.0 77.32358 56.0 56.0 56.0 C 56.0 77.3385 56.0 98.672745 56.0 120.0 Z M 56.0 200.0 C 77.33301 200.0 98.67766 200.0 120.0 200.0 C 120.0 192.00677 120.0 183.99323 120.0 176.0 C 106.66943 176.0 93.3199 176.0 80.0 176.0 C 80.0 162.66943 80.0 149.3199 80.0 136.0 C 72.006775 136.0 63.99323 136.0 56.0 136.0 C 56.0 157.33978 56.0 178.67311 56.0 200.0 Z M 136.0 80.0 C 149.33057 80.0 162.6801 80.0 176.0 80.0 C 176.0 93.33057 176.0 106.6801 176.0 120.0 C 183.99323 120.0 192.00677 120.0 200.0 120.0 C 200.0 98.67067 200.0 77.318665 200.0 56.0 C 178.66089 56.0 157.32845 56.0 136.0 56.0 C 136.0 63.99323 136.0 72.006775 136.0 80.0 Z M 136.0 200.0 C 157.32933 200.0 178.68134 200.0 200.0 200.0 C 200.0 178.65671 200.0 157.33263 200.0 136.0 C 192.00677 136.0 183.99323 136.0 176.0 136.0 C 176.0 149.33057 176.0 162.6801 176.0 176.0 C 162.67174 176.0 149.3176 176.0 136.0 176.0 C 136.0 183.99323 136.0 192.00677 136.0 200.0 Z " />
</g>
</svg>
